<svg width="27" height="20" viewBox="0 0 27 20" fill="none" xmlns="http://www.w3.org/2000/svg">
<g id="China (CN)" clip-path="url(#clip0_1_231)">
<path id="Vector" d="M0 0H26.6667V20H0V0Z" fill="#EE1C25"/>
<path id="Vector_2" d="M3.20002 7.4L4.99999 2L6.79997 7.4L2.00003 4.1H7.99996L3.20002 7.4Z" fill="#FFFF00"/>
<path id="Vector_3" d="M11.0071 2.10353L9.15472 2.51403L10.3903 1.07417L10.2692 3.01203L9.24118 1.29644L11.0071 2.10353Z" fill="#FFFF00"/>
<path id="Vector_4" d="M12.8766 4.47275L11.01 4.13268L12.7074 3.28475L11.8441 5.02393L11.5619 3.04393L12.8766 4.47275Z" fill="#FFFF00"/>
<path id="Vector_5" d="M12.6042 7.79688L11.0386 6.72507L12.9341 6.64314L11.4366 7.879L11.9865 5.95609L12.6042 7.79688Z" fill="#FFFF00"/>
<path id="Vector_6" d="M10.2495 9.96833L9.21935 8.37499L10.9995 9.03155L9.14084 9.59312L10.3908 8.03182L10.2495 9.96833Z" fill="#FFFF00"/>
</g>
<defs>
<clipPath id="clip0_1_231">
<rect width="26.6667" height="20" fill="white"/>
</clipPath>
</defs>
</svg>
