<svg width="27" height="20" viewBox="0 0 27 20" fill="none" xmlns="http://www.w3.org/2000/svg">
<g id="Greece (GR)" clip-path="url(#clip0_1_292)">
<path id="Vector" fill-rule="evenodd" clip-rule="evenodd" d="M0.333374 0H27V2.22083H0.333374V0Z" fill="#0D5EAF"/>
<path id="Vector_2" fill-rule="evenodd" clip-rule="evenodd" d="M0.333374 2.22083H27V4.44583H0.333374V2.22083Z" fill="white"/>
<path id="Vector_3" fill-rule="evenodd" clip-rule="evenodd" d="M0.333374 4.4458H27V6.66663H0.333374V4.4458Z" fill="#0D5EAF"/>
<path id="Vector_4" fill-rule="evenodd" clip-rule="evenodd" d="M0.333374 6.66663H27V8.88746H0.333374V6.66663Z" fill="white"/>
<path id="Vector_5" d="M0.333374 0H11.4459V11.1125H0.333374V0Z" fill="#0D5EAF"/>
<path id="Vector_6" fill-rule="evenodd" clip-rule="evenodd" d="M0.333374 8.88745H27V11.1125H0.333374V8.88745Z" fill="#0D5EAF"/>
<path id="Vector_7" fill-rule="evenodd" clip-rule="evenodd" d="M0.333374 11.1125H27V13.3334H0.333374V11.1125Z" fill="white"/>
<path id="Vector_8" fill-rule="evenodd" clip-rule="evenodd" d="M0.333374 13.3334H27V15.5542H0.333374V13.3334Z" fill="#0D5EAF"/>
<path id="Vector_9" fill-rule="evenodd" clip-rule="evenodd" d="M0.333374 15.5542H27V17.7792H0.333374V15.5542Z" fill="white"/>
<g id="Group">
<path id="Vector_10" fill-rule="evenodd" clip-rule="evenodd" d="M4.77924 0H7.00007V11.1125H4.77924V0Z" fill="white"/>
<path id="Vector_11" fill-rule="evenodd" clip-rule="evenodd" d="M0.333374 4.4458H11.4459V6.66663H0.333374V4.4458Z" fill="white"/>
</g>
<path id="Vector_12" d="M0.333374 17.7792H27V20H0.333374V17.7792Z" fill="#0D5EAF"/>
</g>
<defs>
<clipPath id="clip0_1_292">
<rect width="26.6667" height="20" fill="white" transform="translate(0.333374)"/>
</clipPath>
</defs>
</svg>
