<svg width="28" height="20" viewBox="0 0 28 20" fill="none" xmlns="http://www.w3.org/2000/svg">
<g id="Portugal (PT)" clip-path="url(#clip0_1_385)">
<path id="Vector" d="M11.3334 0H27.3334V20H11.3334V0Z" fill="#FF0000"/>
<path id="Vector_2" d="M0.666687 0H11.3334V20H0.666687V0Z" fill="#006600"/>
<g id="Group">
<path id="Vector_3" fill-rule="evenodd" clip-rule="evenodd" d="M14.8125 12.7583C13.4666 12.7166 7.31248 8.87497 7.27081 8.2583L7.60831 7.6958C8.22081 8.5833 14.5125 12.3208 15.1333 12.1875L14.8125 12.7583Z" fill="#FFFF00" stroke="black" stroke-width="0.075" stroke-linecap="round" stroke-linejoin="round"/>
<path id="Vector_4" fill-rule="evenodd" clip-rule="evenodd" d="M7.53752 7.61662C7.41669 7.94162 9.14585 9.00828 11.2209 10.275C13.3 11.5375 15.0917 12.3166 15.2209 12.2083L15.2834 12.0916C15.2584 12.1333 15.2 12.1458 15.1042 12.1166C14.5417 11.9541 13.0792 11.2833 11.2667 10.1833C9.45002 9.08328 7.87502 8.07078 7.62919 7.64162C7.61003 7.60138 7.60142 7.55693 7.60419 7.51245H7.59586L7.54586 7.60412L7.53752 7.61662ZM14.8417 12.775C14.8209 12.8166 14.775 12.8166 14.6959 12.8083C14.1959 12.7541 12.6709 12.0125 10.8667 10.9333C8.76669 9.67495 7.03335 8.53328 7.22502 8.23328L7.27502 8.14162L7.28336 8.14578C7.11669 8.65412 10.7042 10.7041 10.9167 10.8375C12.9917 12.1208 14.7417 12.875 14.8959 12.6791L14.8417 12.775Z" fill="#FFFF00" stroke="black" stroke-width="0.075" stroke-linecap="round" stroke-linejoin="round"/>
<path id="Vector_5" fill-rule="evenodd" clip-rule="evenodd" d="M11.3417 8.63329C12.6833 8.62079 14.3417 8.44996 15.3 8.06663L15.0917 7.73329C14.5292 8.04579 12.8625 8.25413 11.3292 8.28329C9.52082 8.26663 8.24166 8.09579 7.59999 7.66663L7.40833 8.02496C8.58333 8.52496 9.79166 8.62913 11.3417 8.63329Z" fill="#FFFF00" stroke="black" stroke-width="0.075" stroke-linecap="round" stroke-linejoin="round"/>
<g id="Vector_6">
<path fill-rule="evenodd" clip-rule="evenodd" d="M15.3542 8.07498C15.3208 8.12915 14.6958 8.34165 13.7792 8.49998C12.9711 8.62244 12.1548 8.68234 11.3375 8.67915C10.5544 8.68209 9.77209 8.63197 8.99582 8.52915C8.03332 8.37915 7.53749 8.17082 7.34999 8.09582L7.39582 8.00415C7.92499 8.21248 8.42499 8.33748 9.00832 8.42915C9.77893 8.5332 10.5557 8.58471 11.3333 8.58332C12.1464 8.58417 12.9584 8.52428 13.7625 8.40415C14.7 8.24998 15.2125 8.05415 15.2875 7.96665L15.3542 8.07915V8.07498ZM15.1708 7.73748C15.0708 7.82082 14.5625 7.99998 13.6708 8.14165C12.9008 8.25305 12.1238 8.30875 11.3458 8.30832C10.4292 8.30832 9.67499 8.24165 9.10415 8.15832C8.19582 8.04165 7.71249 7.82498 7.53749 7.76665L7.59165 7.67498C7.72915 7.74582 8.19165 7.93332 9.11249 8.06248C9.85273 8.16164 10.599 8.20897 11.3458 8.20415C12.1183 8.20439 12.8897 8.14869 13.6542 8.03748C14.55 7.91248 15.0333 7.68748 15.1083 7.62915L15.1708 7.73748ZM6.92915 10.25C7.75415 10.6958 9.59165 10.9167 11.3292 10.9333C12.9125 10.9375 14.9708 10.6917 15.7417 10.2833L15.7208 9.83748C15.4792 10.2125 13.2708 10.575 11.3125 10.5625C9.35415 10.5458 7.53332 10.2458 6.92499 9.85415V10.25" fill="#FFFF00"/>
<path d="M6.92915 10.25C7.75415 10.6958 9.59165 10.9166 11.3292 10.9333C12.9125 10.9375 14.9708 10.6917 15.7417 10.2833L15.7208 9.83748C15.4792 10.2125 13.2708 10.575 11.3125 10.5625C9.35415 10.5458 7.53332 10.2458 6.92499 9.85415V10.25M15.3542 8.07498C15.3208 8.12915 14.6958 8.34165 13.7792 8.49998C12.9711 8.62244 12.1548 8.68234 11.3375 8.67915C10.5544 8.68209 9.77209 8.63197 8.99582 8.52915C8.03332 8.37915 7.53749 8.17082 7.34999 8.09582L7.39582 8.00415C7.92499 8.21248 8.42499 8.33748 9.00832 8.42915C9.77893 8.5332 10.5557 8.58471 11.3333 8.58332C12.1464 8.58417 12.9584 8.52428 13.7625 8.40415C14.7 8.24998 15.2125 8.05415 15.2875 7.96665L15.3542 8.07915V8.07498ZM15.1708 7.73748C15.0708 7.82082 14.5625 7.99998 13.6708 8.14165C12.9008 8.25305 12.1238 8.30875 11.3458 8.30832C10.4292 8.30832 9.67499 8.24165 9.10415 8.15832C8.19582 8.04165 7.71249 7.82498 7.53749 7.76665L7.59165 7.67498C7.72915 7.74582 8.19165 7.93332 9.11249 8.06248C9.85273 8.16164 10.599 8.20897 11.3458 8.20415C12.1183 8.20439 12.8897 8.14869 13.6542 8.03748C14.55 7.91248 15.0333 7.68748 15.1083 7.62915L15.1708 7.73748Z" stroke="black" stroke-width="0.075" stroke-linecap="round" stroke-linejoin="round"/>
</g>
<g id="Vector_7">
<path fill-rule="evenodd" clip-rule="evenodd" d="M15.7833 10.1874V10.2916C15.6667 10.4333 14.9417 10.6416 14.0333 10.7916C13.1309 10.9213 12.22 10.9826 11.3083 10.9749C10.4439 10.9823 9.58016 10.9224 8.725 10.7958C8.0869 10.722 7.46337 10.5535 6.875 10.2958V10.1749C7.27917 10.4416 8.37083 10.6416 8.7375 10.6999C9.39583 10.7999 10.2417 10.8749 11.3083 10.8749C12.4292 10.8749 13.325 10.7958 14.0167 10.6916C14.6708 10.5958 15.6 10.3499 15.7833 10.1874ZM15.7833 9.81244V9.91661C15.6667 10.0541 14.9417 10.2624 14.0333 10.4124C13.131 10.5436 12.2201 10.6062 11.3083 10.5999C10.4439 10.605 9.58041 10.5451 8.725 10.4208C8.0869 10.347 7.46337 10.1785 6.875 9.92078V9.79578C7.27917 10.0666 8.375 10.2624 8.7375 10.3208C9.58868 10.4455 10.4481 10.5054 11.3083 10.4999C12.4292 10.4999 13.3292 10.4166 14.0167 10.3124C14.6708 10.2208 15.6 9.97494 15.7833 9.81244ZM11.325 12.6791C9.425 12.6708 7.79583 12.1624 7.45 12.0791L7.7 12.4708C8.86871 12.8847 10.102 13.0865 11.3417 13.0666C12.7875 13.0249 14.05 12.9124 14.9375 12.4791L15.1958 12.0708C14.5917 12.3583 12.5292 12.6791 11.3208 12.6791" fill="#FFFF00"/>
<path d="M11.325 12.6791C9.425 12.6708 7.79583 12.1624 7.45 12.0791L7.7 12.4708C8.86871 12.8847 10.102 13.0865 11.3417 13.0666C12.7875 13.0249 14.05 12.9124 14.9375 12.4791L15.1958 12.0708C14.5917 12.3583 12.5292 12.6791 11.3208 12.6791M15.7833 10.1874V10.2916C15.6667 10.4333 14.9417 10.6416 14.0333 10.7916C13.1309 10.9213 12.22 10.9826 11.3083 10.9749C10.4439 10.9823 9.58016 10.9224 8.725 10.7958C8.0869 10.722 7.46337 10.5535 6.875 10.2958V10.1749C7.27917 10.4416 8.37083 10.6416 8.7375 10.6999C9.39583 10.7999 10.2417 10.8749 11.3083 10.8749C12.4292 10.8749 13.325 10.7958 14.0167 10.6916C14.6708 10.5958 15.6 10.3499 15.7833 10.1874ZM15.7833 9.81244V9.91661C15.6667 10.0541 14.9417 10.2624 14.0333 10.4124C13.131 10.5436 12.2201 10.6062 11.3083 10.5999C10.4439 10.605 9.58041 10.5451 8.725 10.4208C8.0869 10.347 7.46337 10.1785 6.875 9.92078V9.79578C7.27917 10.0666 8.375 10.2624 8.7375 10.3208C9.58868 10.4455 10.4481 10.5054 11.3083 10.4999C12.4292 10.4999 13.3292 10.4166 14.0167 10.3124C14.6708 10.2208 15.6 9.97494 15.7833 9.81244Z" stroke="black" stroke-width="0.075" stroke-linecap="round" stroke-linejoin="round"/>
</g>
<path id="Vector_8" fill-rule="evenodd" clip-rule="evenodd" d="M15.0375 12.3874C14.9996 12.4437 14.9607 12.4992 14.9208 12.5541C14.5042 12.7041 13.8375 12.8624 13.5625 12.9041C12.8246 13.0416 12.0756 13.1113 11.325 13.1124C9.64167 13.0874 8.2625 12.7583 7.61667 12.4749L7.5625 12.3874L7.57083 12.3708L7.65833 12.4083C8.84418 12.8007 10.0843 13.0046 11.3333 13.0124C12.1167 13.0124 12.8958 12.9249 13.525 12.8124C14.4917 12.6166 14.8833 12.4708 15.0042 12.4041L15.0333 12.3874H15.0375ZM15.2583 12.0208C15.2309 12.0696 15.2031 12.1182 15.175 12.1666C14.95 12.2499 14.3417 12.4249 13.4542 12.5499C12.8708 12.6291 12.5083 12.7083 11.3458 12.7291C10.0169 12.7158 8.69618 12.5195 7.42083 12.1458L7.375 12.0416C8.67077 12.3997 10.006 12.5957 11.35 12.6249C12.4125 12.6041 12.8667 12.5249 13.4458 12.4458C14.4792 12.2874 15 12.1124 15.1542 12.0666C15.1543 12.0638 15.1543 12.061 15.1542 12.0583L15.2625 12.0166L15.2583 12.0208Z" fill="#FFFF00" stroke="black" stroke-width="0.075" stroke-linecap="round" stroke-linejoin="round"/>
<path id="Vector_9" fill-rule="evenodd" clip-rule="evenodd" d="M15.2833 9.9C15.2875 11.15 14.6458 12.275 14.1333 12.7667C13.3764 13.5049 12.3655 13.9254 11.3083 13.9417C10.0458 13.9625 8.85833 13.1417 8.53749 12.7792C7.81976 12.018 7.41126 11.0168 7.39166 9.97083C7.46666 8.60417 8.00416 7.65417 8.77916 7C9.53201 6.38024 10.4791 6.04538 11.4542 6.05417C12.0234 6.08176 12.5806 6.22796 13.09 6.4834C13.5994 6.73883 14.0499 7.09787 14.4125 7.5375C14.9333 8.17083 15.1625 8.85833 15.2833 9.9ZM11.3167 5.625C12.4823 5.62497 13.6007 6.08571 14.428 6.9068C15.2553 7.72789 15.7245 8.84275 15.7333 10.0083C15.7333 10.5867 15.6194 11.1594 15.3981 11.6937C15.1768 12.2281 14.8523 12.7136 14.4434 13.1225C14.0344 13.5315 13.5489 13.8559 13.0146 14.0773C12.4802 14.2986 11.9075 14.4125 11.3292 14.4125C10.7508 14.4125 10.1781 14.2986 9.64376 14.0773C9.10942 13.8559 8.62391 13.5315 8.21495 13.1225C7.80598 12.7136 7.48157 12.2281 7.26024 11.6937C7.03891 11.1594 6.92499 10.5867 6.92499 10.0083C6.92083 7.59167 8.89583 5.625 11.3167 5.625Z" fill="#FFFF00" stroke="black" stroke-width="0.075" stroke-linecap="round" stroke-linejoin="round"/>
<path id="Vector_10" fill-rule="evenodd" clip-rule="evenodd" d="M11.3292 5.60413C13.7542 5.60413 15.7292 7.57913 15.7292 10.0041C15.7292 12.4291 13.7542 14.4041 11.3334 14.4041C8.91252 14.4041 6.93335 12.4291 6.93335 10.0041C6.93335 7.57913 8.90835 5.60413 11.3334 5.60413H11.3292ZM7.02502 9.99996C7.02502 12.3666 8.97085 14.3041 11.3292 14.3041C13.6875 14.3041 15.6334 12.3666 15.6334 9.99996C15.6334 7.63329 13.6875 5.69579 11.3292 5.69579C8.97085 5.69579 7.02502 7.63329 7.02502 9.99996Z" fill="#FFFF00" stroke="black" stroke-width="0.075" stroke-linecap="round" stroke-linejoin="round"/>
<path id="Vector_11" fill-rule="evenodd" clip-rule="evenodd" d="M11.3333 5.97083C12.4009 5.97412 13.4238 6.39968 14.1787 7.15458C14.9336 7.90948 15.3592 8.9324 15.3625 9.99999C15.3592 11.068 14.9338 12.0913 14.179 12.8469C13.4242 13.6024 12.4013 14.0289 11.3333 14.0333C9.12497 14.0333 7.30414 12.2167 7.30414 9.99999C7.30853 8.93274 7.73443 7.91045 8.4891 7.15579C9.24377 6.40112 10.2661 5.97521 11.3333 5.97083ZM7.39997 9.99999C7.39997 12.1667 9.17497 13.9333 11.3333 13.9333C13.4916 13.9333 15.2666 12.1625 15.2666 9.99999C15.2666 7.83332 13.4916 6.06666 11.3333 6.06666C10.2915 6.07105 9.29356 6.48686 8.55686 7.22355C7.82017 7.96025 7.40436 8.95816 7.39997 9.99999Z" fill="#FFFF00" stroke="black" stroke-width="0.075" stroke-linecap="round" stroke-linejoin="round"/>
<path id="Vector_12" fill-rule="evenodd" clip-rule="evenodd" d="M11.5125 5.58337H11.1334V14.4292H11.5084L11.5125 5.58337Z" fill="#FFFF00" stroke="black" stroke-width="0.075" stroke-linecap="round" stroke-linejoin="round"/>
<path id="Vector_13" fill-rule="evenodd" clip-rule="evenodd" d="M11.4708 5.53333H11.5667V14.4792H11.475V5.53333H11.4708ZM11.0958 5.53333H11.1958V14.4792H11.1V5.53333H11.0958Z" fill="#FFFF00" stroke="black" stroke-width="0.075" stroke-linecap="round" stroke-linejoin="round"/>
<path id="Vector_14" fill-rule="evenodd" clip-rule="evenodd" d="M15.7333 10.175V9.84996L15.4666 9.59996L13.9541 9.19996L11.7791 8.97913L9.15414 9.11246L7.28748 9.55413L6.91248 9.83329V10.1625L7.86664 9.73329L10.1333 9.37913H12.3125L13.9125 9.55413L15.0208 9.82079L15.7333 10.175Z" fill="#FFFF00" stroke="black" stroke-width="0.075" stroke-linecap="round" stroke-linejoin="round"/>
<path id="Vector_15" fill-rule="evenodd" clip-rule="evenodd" d="M11.3333 9.32501C12.3708 9.32501 13.375 9.42084 14.1792 9.57501C15.0042 9.74168 15.5833 9.95001 15.7833 10.1792V10.2958C15.5417 10.0042 14.7625 9.79584 14.1583 9.67084C13.3667 9.52084 12.3667 9.42084 11.3292 9.42084C10.2417 9.42084 9.225 9.52918 8.44167 9.67918C7.81667 9.80418 6.97917 10.0542 6.875 10.2958V10.175C6.92917 10.0083 7.55417 9.75834 8.42917 9.57918C9.21667 9.42501 10.2333 9.32501 11.3292 9.32501H11.3333ZM11.3333 8.94584C12.2875 8.94393 13.2399 9.0276 14.1792 9.19584C15.0042 9.36251 15.5833 9.57084 15.7833 9.80418V9.91668C15.5417 9.62918 14.7625 9.41668 14.1583 9.29584C13.3667 9.14168 12.3667 9.04584 11.3292 9.04584C10.3621 9.04278 9.39691 9.12926 8.44583 9.30418C7.84167 9.41668 6.97083 9.67501 6.875 9.91668V9.80001C6.93333 9.63334 7.56667 9.37084 8.42917 9.20418C9.22083 9.05001 10.2333 8.94584 11.3333 8.94584ZM11.3083 7.02084C12.9458 7.01251 14.375 7.25001 15.0292 7.58334L15.2667 8.00001C14.7 7.69168 13.1583 7.37501 11.3125 7.41668C9.80833 7.42918 8.2 7.58334 7.39583 8.01668L7.67917 7.54168C8.34167 7.19584 9.9 7.02084 11.3083 7.02084Z" fill="#FFFF00" stroke="black" stroke-width="0.075" stroke-linecap="round" stroke-linejoin="round"/>
<g id="Vector_16">
<path fill-rule="evenodd" clip-rule="evenodd" d="M11.3333 7.36247C12.1883 7.34804 13.0429 7.40799 13.8875 7.54164C14.5541 7.66664 15.1916 7.84997 15.2833 7.94997L15.3541 8.07497C15.1333 7.9333 14.5791 7.7708 13.8708 7.63747C13.1625 7.50414 12.2583 7.4583 11.3291 7.46247C10.275 7.4583 9.45414 7.51247 8.75414 7.63747C8.2716 7.7051 7.8031 7.85001 7.36664 8.06664L7.43747 7.93747C7.68747 7.81247 8.07497 7.6583 8.7333 7.53747C9.46247 7.40414 10.2916 7.36664 11.3333 7.36247ZM11.3333 6.98747C12.225 6.97914 13.1083 7.02914 13.7958 7.15414C14.2412 7.22027 14.6723 7.36114 15.0708 7.5708L15.175 7.73747C15 7.54164 14.3416 7.35414 13.7541 7.25414C13.0708 7.1333 12.225 7.08747 11.3333 7.07914C10.5033 7.07174 9.67405 7.13306 8.85414 7.26247C8.42542 7.32221 8.00904 7.45022 7.6208 7.64164L7.71247 7.50414C7.95414 7.37914 8.3458 7.26247 8.83747 7.16664C9.66279 7.03553 10.4977 6.9742 11.3333 6.9833V6.98747ZM13.5166 11.8333C12.7944 11.7083 12.0619 11.6525 11.3291 11.6666C8.59997 11.7 7.7208 12.2291 7.61247 12.3875L7.40414 12.0541C8.10414 11.5541 9.58747 11.2708 11.3458 11.2958C12.2583 11.3125 13.0458 11.375 13.7041 11.5041L13.5166 11.8375" fill="#FFFF00"/>
<path d="M13.5166 11.8333C12.7944 11.7083 12.0619 11.6525 11.3291 11.6666C8.59997 11.7 7.7208 12.2291 7.61247 12.3875L7.40414 12.0541C8.10414 11.5541 9.58747 11.2708 11.3458 11.2958C12.2583 11.3125 13.0458 11.375 13.7041 11.5041L13.5166 11.8375M11.3333 7.36247C12.1883 7.34804 13.0429 7.40799 13.8875 7.54164C14.5541 7.66664 15.1916 7.84997 15.2833 7.94997L15.3541 8.07497C15.1333 7.9333 14.5791 7.7708 13.8708 7.63747C13.1625 7.50414 12.2583 7.4583 11.3291 7.46247C10.275 7.4583 9.45414 7.51247 8.75414 7.63747C8.2716 7.7051 7.8031 7.85001 7.36664 8.06664L7.43747 7.93747C7.68747 7.81247 8.07497 7.6583 8.7333 7.53747C9.46247 7.40414 10.2916 7.36664 11.3333 7.36247ZM11.3333 6.98747C12.225 6.97914 13.1083 7.02914 13.7958 7.15414C14.2412 7.22027 14.6723 7.36114 15.0708 7.5708L15.175 7.73747C15 7.54164 14.3416 7.35414 13.7541 7.25414C13.0708 7.1333 12.225 7.08747 11.3333 7.07914C10.5033 7.07174 9.67405 7.13306 8.85414 7.26247C8.42542 7.32221 8.00904 7.45022 7.6208 7.64164L7.71247 7.50414C7.95414 7.37914 8.3458 7.26247 8.83747 7.16664C9.66279 7.03553 10.4977 6.9742 11.3333 6.9833V6.98747Z" stroke="black" stroke-width="0.075" stroke-linecap="round" stroke-linejoin="round"/>
</g>
<path id="Vector_17" fill-rule="evenodd" clip-rule="evenodd" d="M11.3167 11.6208C12.075 11.6333 12.8167 11.6624 13.5375 11.7958L13.4875 11.8874C12.8208 11.7624 12.1042 11.7208 11.3208 11.7208C10.3083 11.7124 9.29168 11.8083 8.40418 12.0624C8.12502 12.1416 7.66252 12.3208 7.61252 12.4708L7.56252 12.3874C7.57918 12.2958 7.85418 12.1124 8.37918 11.9708C9.39585 11.6791 10.3458 11.6249 11.3167 11.6208ZM11.35 11.2374C12.1504 11.2366 12.9493 11.3063 13.7375 11.4458L13.6833 11.5416C12.9137 11.4004 12.1325 11.3321 11.35 11.3374C10.3417 11.3374 9.27085 11.4124 8.29585 11.6958C7.98335 11.7874 7.43752 11.9874 7.42085 12.1416L7.37085 12.0499C7.37918 11.9083 7.85002 11.7208 8.27502 11.5999C9.25418 11.3124 10.3292 11.2416 11.35 11.2374Z" fill="#FFFF00" stroke="black" stroke-width="0.075" stroke-linecap="round" stroke-linejoin="round"/>
<path id="Vector_18" fill-rule="evenodd" clip-rule="evenodd" d="M15.225 12.1041L14.9 12.6166L13.9542 11.7791L11.5125 10.1333L8.75418 8.62078L7.32501 8.13328L7.62918 7.56662L7.73335 7.51245L8.62085 7.73328L11.5542 9.24578L13.2458 10.3125L14.6667 11.3333L15.2458 12L15.225 12.1041Z" fill="#FFFF00" stroke="black" stroke-width="0.075" stroke-linecap="round" stroke-linejoin="round"/>
<path id="Vector_19" fill-rule="evenodd" clip-rule="evenodd" d="M7.27499 8.14581C7.52499 7.97915 9.36666 8.79581 11.3 9.96248C13.2208 11.1291 15.0625 12.4458 14.8958 12.6916L14.8417 12.7791L14.8167 12.8C14.8208 12.7958 14.85 12.7583 14.8167 12.6708C14.7333 12.4 13.425 11.3583 11.2625 10.05C9.14999 8.79581 7.39166 8.03748 7.22083 8.25415L7.27499 8.14581ZM15.2917 12.1C15.45 11.7833 13.7417 10.4958 11.6208 9.24165C9.45416 8.01248 7.88749 7.28748 7.59999 7.50415L7.54166 7.62498C7.54166 7.62915 7.54166 7.61665 7.55832 7.60415C7.60832 7.56248 7.69583 7.56248 7.73333 7.56248C8.22499 7.57081 9.62916 8.21665 11.6 9.34581C12.4667 9.84581 15.25 11.6375 15.2375 12.1375C15.2375 12.1791 15.2417 12.1875 15.225 12.2125L15.2958 12.1041L15.2917 12.1Z" fill="#FFFF00" stroke="black" stroke-width="0.075" stroke-linecap="round" stroke-linejoin="round"/>
</g>
<g id="Group_2">
<path id="Vector_20" d="M8.69336 10.4903C8.69402 10.8353 8.7631 11.1767 8.89661 11.4949C9.03011 11.813 9.22539 12.1015 9.47114 12.3436C9.71389 12.5901 10.003 12.7861 10.3219 12.9204C10.6407 13.0546 10.983 13.1245 11.3289 13.1258C12.0291 13.1258 12.7005 12.8476 13.1956 12.3525C13.4405 12.109 13.6349 11.8196 13.7676 11.5007C13.9003 11.1819 13.9687 10.8401 13.9689 10.4947V6.97471L8.69336 6.96582V10.4903Z" fill="white" stroke="black" stroke-width="0.0933336"/>
<g id="Vector_21">
<path d="M8.79114 10.4948C8.79208 10.8257 8.85854 11.1532 8.98669 11.4583C9.11485 11.7635 9.30215 12.0402 9.53781 12.2725C10.011 12.7482 10.6535 13.0167 11.3245 13.0192C11.9942 13.0196 12.6368 12.7543 13.1112 12.2814C13.346 12.0487 13.5325 11.7718 13.6599 11.4667C13.7873 11.1616 13.853 10.8343 13.8534 10.5037V7.08142H8.80003V10.4948M12.8445 8.10809V10.2814L12.84 10.5081C12.8415 10.7067 12.8029 10.9035 12.7266 11.0868C12.6502 11.27 12.5376 11.436 12.3956 11.5748C12.113 11.8584 11.7293 12.0182 11.3289 12.0192C10.9111 12.0192 10.5423 11.8414 10.2667 11.5659C9.98308 11.2832 9.82323 10.8996 9.82225 10.4992V8.0992L12.8445 8.10809Z" fill="#FF0000"/>
<path d="M8.79114 10.4948C8.79208 10.8257 8.85854 11.1532 8.98669 11.4583C9.11485 11.7635 9.30215 12.0402 9.53781 12.2725C10.011 12.7482 10.6535 13.0167 11.3245 13.0192C11.9942 13.0196 12.6368 12.7543 13.1112 12.2814C13.346 12.0487 13.5325 11.7718 13.6599 11.4667C13.7873 11.1616 13.853 10.8343 13.8534 10.5037V7.08142H8.80003V10.4948M12.8445 8.10809V10.2814L12.84 10.5081C12.8415 10.7067 12.8029 10.9035 12.7266 11.0867C12.6502 11.27 12.5376 11.436 12.3956 11.5748C12.113 11.8584 11.7293 12.0182 11.3289 12.0192C10.9111 12.0192 10.5423 11.8414 10.2667 11.5659C9.98308 11.2832 9.82323 10.8996 9.82225 10.4992V8.0992L12.8445 8.10809Z" stroke="black" stroke-width="0.0666669"/>
</g>
<g id="e">
<g id="d">
<path id="Vector_22" d="M9.12006 7.97471C9.1245 7.73026 9.29783 7.67249 9.29783 7.67249C9.30228 7.67249 9.48895 7.73471 9.48895 7.97915H9.12006" fill="#FFFF00"/>
<path id="Vector_23" d="M8.96894 7.67693L8.93783 7.95693H9.12449C9.12449 7.72582 9.30227 7.69026 9.30227 7.69026C9.30672 7.69026 9.48005 7.73915 9.4845 7.95693H9.67116L9.63561 7.67249H8.96894V7.67693ZM8.92449 7.96138H9.68005C9.69339 7.96138 9.70672 7.97471 9.70672 7.99249C9.70672 8.01471 9.69339 8.02804 9.68005 8.02804H8.92449C8.91116 8.02804 8.89783 8.01471 8.89783 7.99249C8.89783 7.97471 8.91116 7.96138 8.92894 7.96138H8.92449Z" fill="#FFFF00" stroke="black" stroke-width="0.0666669"/>
<g id="Vector_24">
<path d="M9.20003 7.95696C9.20003 7.8103 9.30226 7.7703 9.30226 7.7703C9.30226 7.7703 9.40448 7.81474 9.40448 7.95696H9.20003ZM8.94225 7.55696H9.6667C9.68003 7.55696 9.69337 7.57474 9.69337 7.59252C9.69337 7.60585 9.68003 7.61918 9.6667 7.61918H8.94225C8.92892 7.61918 8.91559 7.60585 8.91559 7.58807C8.91559 7.57474 8.92892 7.56141 8.94225 7.56141V7.55696ZM8.96003 7.62363H9.64448C9.65781 7.62363 9.67115 7.63696 9.67115 7.65474C9.67115 7.67252 9.65781 7.68585 9.64448 7.68585H8.95559C8.93781 7.68585 8.92892 7.67252 8.92892 7.65474C8.92892 7.63696 8.93781 7.62363 8.95559 7.62363H8.96003ZM9.18226 7.15252H9.23559V7.18807H9.27559V7.15252H9.33337V7.19252H9.37337V7.14807H9.4267V7.23696C9.4267 7.25474 9.41781 7.26363 9.40448 7.26363H9.20892C9.19559 7.26363 9.18226 7.25474 9.18226 7.2414V7.15252ZM9.3867 7.27252L9.40003 7.55696H9.20892L9.22226 7.26807H9.3867" fill="#FFFF00"/>
<path d="M9.3867 7.27252L9.40003 7.55696H9.20892L9.22226 7.26807H9.3867M9.20003 7.95696C9.20003 7.8103 9.30226 7.7703 9.30226 7.7703C9.30226 7.7703 9.40448 7.81474 9.40448 7.95696H9.20003ZM8.94225 7.55696H9.6667C9.68003 7.55696 9.69337 7.57474 9.69337 7.59252C9.69337 7.60585 9.68003 7.61918 9.6667 7.61918H8.94225C8.92892 7.61918 8.91559 7.60585 8.91559 7.58807C8.91559 7.57474 8.92892 7.56141 8.94225 7.56141V7.55696ZM8.96003 7.62363H9.64448C9.65781 7.62363 9.67115 7.63696 9.67115 7.65474C9.67115 7.67252 9.65781 7.68585 9.64448 7.68585H8.95559C8.93781 7.68585 8.92892 7.67252 8.92892 7.65474C8.92892 7.63696 8.93781 7.62363 8.95559 7.62363H8.96003ZM9.18226 7.15252H9.23559V7.18807H9.27559V7.15252H9.33337V7.19252H9.37337V7.14807H9.4267V7.23696C9.4267 7.25474 9.41781 7.26363 9.40448 7.26363H9.20892C9.19559 7.26363 9.18226 7.25474 9.18226 7.2414V7.15252Z" stroke="black" stroke-width="0.0666669"/>
</g>
<path id="a" d="M9.15562 7.40588V7.557H8.97784V7.40588H9.15562Z" fill="#FFFF00" stroke="black" stroke-width="0.0666669"/>
<path id="a_2" d="M9.62669 7.40588V7.557H9.44891V7.40588H9.62669Z" fill="#FFFF00" stroke="black" stroke-width="0.0666669"/>
<path id="b" d="M8.94672 7.29028H9.00005V7.33473H9.04005V7.29028H9.09338V7.33473H9.13338V7.29028H9.18672V7.37917C9.18672 7.39695 9.17783 7.40584 9.16449 7.40584H8.97338C8.96631 7.40584 8.95953 7.40303 8.95453 7.39803C8.94953 7.39303 8.94672 7.38624 8.94672 7.37917V7.29028Z" fill="#FFFF00" stroke="black" stroke-width="0.0666669"/>
<path id="b_2" d="M9.41785 7.29028H9.47118V7.33473H9.51118V7.29028H9.56451V7.33473H9.60451V7.29028H9.65785V7.37917C9.65785 7.39695 9.64896 7.40584 9.63562 7.40584H9.44451C9.43744 7.40584 9.43066 7.40303 9.42566 7.39803C9.42066 7.39303 9.41785 7.38624 9.41785 7.37917V7.29028Z" fill="#FFFF00" stroke="black" stroke-width="0.0666669"/>
<path id="Vector_25" d="M9.28448 7.36143C9.28448 7.33476 9.32449 7.33476 9.32449 7.36143V7.43254H9.28448V7.36143Z" fill="black"/>
<path id="c" d="M9.04895 7.45921C9.04895 7.43254 9.08451 7.43254 9.08451 7.45921V7.51254H9.04895V7.45921Z" fill="black"/>
<path id="c_2" d="M9.52008 7.45921C9.52008 7.43254 9.55564 7.43254 9.55564 7.45921V7.51254H9.52008V7.45921Z" fill="black"/>
</g>
<g id="d_2">
<path id="Vector_26" d="M9.12006 10.0324C9.1245 9.788 9.29783 9.73022 9.29783 9.73022C9.30228 9.73022 9.48895 9.79245 9.48895 10.0369H9.12006" fill="#FFFF00"/>
<path id="Vector_27" d="M8.96894 9.73467L8.93783 10.0147H9.12449C9.12449 9.78356 9.30227 9.748 9.30227 9.748C9.30672 9.748 9.48005 9.79689 9.4845 10.0147H9.67116L9.63561 9.73022H8.96894V9.73467ZM8.92449 10.0191H9.68005C9.69339 10.0191 9.70672 10.0324 9.70672 10.0502C9.70672 10.0724 9.69339 10.0858 9.68005 10.0858H8.92449C8.91116 10.0858 8.89783 10.0724 8.89783 10.0502C8.89783 10.0324 8.91116 10.0191 8.92894 10.0191H8.92449Z" fill="#FFFF00" stroke="black" stroke-width="0.0666669"/>
<g id="Vector_28">
<path d="M9.20003 10.0147C9.20003 9.86803 9.30226 9.82803 9.30226 9.82803C9.30226 9.82803 9.40448 9.87248 9.40448 10.0147H9.20003ZM8.94225 9.6147H9.6667C9.68003 9.6147 9.69337 9.63248 9.69337 9.65026C9.69337 9.66359 9.68003 9.67692 9.6667 9.67692H8.94225C8.92892 9.67692 8.91559 9.66359 8.91559 9.64581C8.91559 9.63248 8.92892 9.61915 8.94225 9.61915V9.6147ZM8.96003 9.68137H9.64448C9.65781 9.68137 9.67115 9.6947 9.67115 9.71248C9.67115 9.73026 9.65781 9.74359 9.64448 9.74359H8.95559C8.93781 9.74359 8.92892 9.73026 8.92892 9.71248C8.92892 9.6947 8.93781 9.68137 8.95559 9.68137H8.96003ZM9.18226 9.21025H9.23559V9.24581H9.27559V9.21025H9.33337V9.25026H9.37337V9.20581H9.4267V9.2947C9.4267 9.31248 9.41781 9.32137 9.40448 9.32137H9.20892C9.19559 9.32137 9.18226 9.31248 9.18226 9.29914V9.21025ZM9.3867 9.33026L9.40003 9.6147H9.20892L9.22226 9.32581H9.3867" fill="#FFFF00"/>
<path d="M9.3867 9.33026L9.40003 9.6147H9.20892L9.22226 9.32581H9.3867M9.20003 10.0147C9.20003 9.86803 9.30226 9.82803 9.30226 9.82803C9.30226 9.82803 9.40448 9.87248 9.40448 10.0147H9.20003ZM8.94225 9.6147H9.6667C9.68003 9.6147 9.69337 9.63248 9.69337 9.65026C9.69337 9.66359 9.68003 9.67692 9.6667 9.67692H8.94225C8.92892 9.67692 8.91559 9.66359 8.91559 9.64581C8.91559 9.63248 8.92892 9.61915 8.94225 9.61915V9.6147ZM8.96003 9.68137H9.64448C9.65781 9.68137 9.67115 9.6947 9.67115 9.71248C9.67115 9.73026 9.65781 9.74359 9.64448 9.74359H8.95559C8.93781 9.74359 8.92892 9.73026 8.92892 9.71248C8.92892 9.6947 8.93781 9.68137 8.95559 9.68137H8.96003ZM9.18226 9.21025H9.23559V9.24581H9.27559V9.21025H9.33337V9.25026H9.37337V9.20581H9.4267V9.2947C9.4267 9.31248 9.41781 9.32137 9.40448 9.32137H9.20892C9.19559 9.32137 9.18226 9.31248 9.18226 9.29914V9.21025Z" stroke="black" stroke-width="0.0666669"/>
</g>
<path id="a_3" d="M9.15562 9.46362V9.61473H8.97784V9.46362H9.15562Z" fill="#FFFF00" stroke="black" stroke-width="0.0666669"/>
<path id="a_4" d="M9.62669 9.46362V9.61473H9.44891V9.46362H9.62669Z" fill="#FFFF00" stroke="black" stroke-width="0.0666669"/>
<path id="b_3" d="M8.94672 9.34802H9.00005V9.39247H9.04005V9.34802H9.09338V9.39247H9.13338V9.34802H9.18672V9.43691C9.18672 9.45469 9.17783 9.46358 9.16449 9.46358H8.97338C8.96631 9.46358 8.95953 9.46077 8.95453 9.45577C8.94953 9.45077 8.94672 9.44398 8.94672 9.43691V9.34802Z" fill="#FFFF00" stroke="black" stroke-width="0.0666669"/>
<path id="b_4" d="M9.41785 9.34802H9.47118V9.39247H9.51118V9.34802H9.56451V9.39247H9.60451V9.34802H9.65785V9.43691C9.65785 9.45469 9.64896 9.46358 9.63562 9.46358H9.44451C9.43744 9.46358 9.43066 9.46077 9.42566 9.45577C9.42066 9.45077 9.41785 9.44398 9.41785 9.43691V9.34802Z" fill="#FFFF00" stroke="black" stroke-width="0.0666669"/>
<path id="Vector_29" d="M9.28448 9.41917C9.28448 9.3925 9.32449 9.3925 9.32449 9.41917V9.49028H9.28448V9.41917Z" fill="black"/>
<path id="c_3" d="M9.04895 9.51695C9.04895 9.49028 9.08451 9.49028 9.08451 9.51695V9.57028H9.04895V9.51695Z" fill="black"/>
<path id="c_4" d="M9.52008 9.51695C9.52008 9.49028 9.55564 9.49028 9.55564 9.51695V9.57028H9.52008V9.51695Z" fill="black"/>
</g>
<g id="d_3">
<path id="Vector_30" d="M9.92209 12.1772C9.75177 12.0018 9.83291 11.8381 9.83291 11.8381C9.83604 11.8349 10.0117 11.7463 10.1852 11.9186L9.92524 12.1803" fill="#FFFF00"/>
<path id="Vector_31" d="M9.60435 12.0745L9.78111 12.2939L9.91264 12.1614C9.74865 11.9986 9.84869 11.8474 9.84869 11.8474C9.85182 11.8442 10.0086 11.7557 10.1663 11.906L10.2978 11.7735L10.071 11.5983L9.60119 12.0714L9.60435 12.0745ZM9.77486 12.3065L10.3073 11.7703C10.3167 11.7609 10.3355 11.7608 10.3481 11.7733C10.3639 11.789 10.364 11.8079 10.3546 11.8173L9.82217 12.3534C9.81277 12.3629 9.79392 12.363 9.77815 12.3473C9.76554 12.3348 9.76547 12.3159 9.778 12.3033L9.77486 12.3065Z" fill="#FFFF00" stroke="black" stroke-width="0.0666669"/>
<g id="Vector_32">
<path d="M9.96586 12.1079C9.86179 12.0045 9.90544 11.9038 9.90544 11.9038C9.90544 11.9038 10.009 11.8626 10.1099 11.9628L9.96586 12.1079ZM9.50039 12.0089L10.0109 11.4949C10.0203 11.4854 10.0423 11.4885 10.0549 11.501C10.0643 11.5104 10.0644 11.5293 10.055 11.5387L9.54454 12.0528C9.53515 12.0622 9.51629 12.0623 9.50368 12.0498C9.49422 12.0404 9.49415 12.0215 9.50355 12.0121L9.50039 12.0089ZM9.56023 12.0433L10.0425 11.5576C10.0519 11.5482 10.0708 11.5481 10.0834 11.5606C10.096 11.5732 10.0961 11.592 10.0867 11.6015L9.60124 12.0903C9.58872 12.1029 9.57299 12.0998 9.56038 12.0873C9.54776 12.0748 9.54457 12.0591 9.55709 12.0465L9.56023 12.0433ZM9.38252 11.5537L9.4201 11.5158L9.44533 11.5409L9.47352 11.5125L9.44829 11.4874L9.489 11.4464L9.51739 11.4746L9.54557 11.4462L9.51403 11.4149L9.55161 11.3771L9.61469 11.4397C9.6273 11.4522 9.62735 11.4648 9.61795 11.4743L9.48016 11.613C9.47076 11.6225 9.45506 11.6257 9.4456 11.6163L9.38252 11.5537ZM9.61173 11.4931L9.82296 11.6841L9.6883 11.8197L9.4927 11.6067L9.60858 11.49" fill="#FFFF00"/>
<path d="M9.61173 11.4931L9.82296 11.6841L9.6883 11.8197L9.4927 11.6067L9.60858 11.49M9.96586 12.1079C9.86179 12.0045 9.90544 11.9038 9.90544 11.9038C9.90544 11.9038 10.009 11.8626 10.1099 11.9628L9.96586 12.1079ZM9.50039 12.0089L10.0109 11.4949C10.0203 11.4854 10.0423 11.4885 10.0549 11.501C10.0643 11.5104 10.0644 11.5293 10.055 11.5387L9.54454 12.0528C9.53515 12.0622 9.51629 12.0623 9.50368 12.0498C9.49422 12.0404 9.49415 12.0215 9.50355 12.0121L9.50039 12.0089ZM9.56023 12.0433L10.0425 11.5576C10.0519 11.5482 10.0708 11.5481 10.0834 11.5606C10.096 11.5732 10.0961 11.592 10.0867 11.6015L9.60124 12.0903C9.58872 12.1029 9.57299 12.0998 9.56038 12.0873C9.54776 12.0748 9.54457 12.0591 9.55709 12.0465L9.56023 12.0433ZM9.38252 11.5537L9.4201 11.5158L9.44533 11.5409L9.47352 11.5125L9.44829 11.4874L9.489 11.4464L9.51739 11.4746L9.54557 11.4462L9.51403 11.4149L9.55161 11.3771L9.61469 11.4397C9.6273 11.4522 9.62735 11.4648 9.61795 11.4743L9.48016 11.613C9.47076 11.6225 9.45506 11.6257 9.4456 11.6163L9.38252 11.5537Z" stroke="black" stroke-width="0.0666669"/>
</g>
<path id="a_5" d="M9.54348 11.7511L9.65071 11.8575L9.52544 11.9837L9.41821 11.8772L9.54348 11.7511Z" fill="#FFFF00" stroke="black" stroke-width="0.0666669"/>
<path id="a_6" d="M9.87545 11.4167L9.98268 11.5232L9.85741 11.6493L9.75018 11.5428L9.87545 11.4167Z" fill="#FFFF00" stroke="black" stroke-width="0.0666669"/>
<path id="b_5" d="M9.31433 11.8179L9.35191 11.78L9.38345 11.8113L9.41163 11.783L9.3801 11.7516L9.41768 11.7138L9.44921 11.7451L9.4774 11.7167L9.44586 11.6854L9.48344 11.6476L9.54652 11.7102C9.55913 11.7227 9.55918 11.7353 9.54978 11.7448L9.41512 11.8804C9.41013 11.8854 9.40336 11.8882 9.39629 11.8883C9.38922 11.8883 9.38242 11.8855 9.3774 11.8805L9.31433 11.8179Z" fill="#FFFF00" stroke="black" stroke-width="0.0666669"/>
<path id="b_6" d="M9.6463 11.4835L9.68388 11.4457L9.71542 11.477L9.7436 11.4486L9.71207 11.4173L9.74965 11.3794L9.78118 11.4108L9.80937 11.3824L9.77783 11.3511L9.81541 11.3132L9.87849 11.3759C9.8911 11.3884 9.89115 11.401 9.88175 11.4104L9.74709 11.546C9.7421 11.551 9.73533 11.5539 9.72826 11.5539C9.72119 11.5539 9.71439 11.5511 9.70937 11.5462L9.6463 11.4835Z" fill="#FFFF00" stroke="black" stroke-width="0.0666669"/>
<path id="Vector_33" d="M9.60281 11.6282C9.58389 11.6094 9.61208 11.5811 9.631 11.5998L9.68146 11.65L9.65327 11.6783L9.60281 11.6282Z" fill="black"/>
<path id="c_5" d="M9.5062 11.8643C9.48727 11.8455 9.51233 11.8203 9.53125 11.8391L9.56909 11.8767L9.54404 11.9019L9.5062 11.8643Z" fill="black"/>
<path id="c_6" d="M9.83817 11.5301C9.81924 11.5113 9.8443 11.4861 9.86322 11.5049L9.90106 11.5424L9.87601 11.5677L9.83817 11.5301Z" fill="black"/>
</g>
</g>
<g id="d_4">
<path id="Vector_34" d="M11.1511 7.97471C11.1556 7.73026 11.3289 7.67249 11.3289 7.67249C11.3333 7.67249 11.52 7.73471 11.52 7.97915H11.1511" fill="#FFFF00"/>
<path id="Vector_35" d="M11 7.67693L10.9689 7.95693H11.1556C11.1556 7.72582 11.3333 7.69026 11.3333 7.69026C11.3378 7.69026 11.5111 7.73915 11.5156 7.95693H11.7022L11.6667 7.67249H11V7.67693ZM10.9556 7.96138H11.7111C11.7245 7.96138 11.7378 7.97471 11.7378 7.99249C11.7378 8.01471 11.7245 8.02804 11.7111 8.02804H10.9556C10.9422 8.02804 10.9289 8.01471 10.9289 7.99249C10.9289 7.97471 10.9422 7.96138 10.96 7.96138H10.9556Z" fill="#FFFF00" stroke="black" stroke-width="0.0666669"/>
<g id="Vector_36">
<path d="M11.2311 7.95696C11.2311 7.8103 11.3333 7.7703 11.3333 7.7703C11.3333 7.7703 11.4355 7.81474 11.4355 7.95696H11.2311ZM10.9733 7.55696H11.6978C11.7111 7.55696 11.7244 7.57474 11.7244 7.59252C11.7244 7.60585 11.7111 7.61918 11.6978 7.61918H10.9733C10.96 7.61918 10.9467 7.60585 10.9467 7.58807C10.9467 7.57474 10.96 7.56141 10.9733 7.56141V7.55696ZM10.9911 7.62363H11.6755C11.6889 7.62363 11.7022 7.63696 11.7022 7.65474C11.7022 7.67252 11.6889 7.68585 11.6755 7.68585H10.9867C10.9689 7.68585 10.96 7.67252 10.96 7.65474C10.96 7.63696 10.9689 7.62363 10.9867 7.62363H10.9911ZM11.2133 7.15252H11.2667V7.18807H11.3067V7.15252H11.3644V7.19252H11.4044V7.14807H11.4578V7.23696C11.4578 7.25474 11.4489 7.26363 11.4355 7.26363H11.24C11.2267 7.26363 11.2133 7.25474 11.2133 7.2414V7.15252ZM11.4178 7.27252L11.4311 7.55696H11.24L11.2533 7.26807H11.4178" fill="#FFFF00"/>
<path d="M11.4178 7.27252L11.4311 7.55696H11.24L11.2533 7.26807H11.4178M11.2311 7.95696C11.2311 7.8103 11.3333 7.7703 11.3333 7.7703C11.3333 7.7703 11.4355 7.81474 11.4355 7.95696H11.2311ZM10.9733 7.55696H11.6978C11.7111 7.55696 11.7244 7.57474 11.7244 7.59252C11.7244 7.60585 11.7111 7.61918 11.6978 7.61918H10.9733C10.96 7.61918 10.9467 7.60585 10.9467 7.58807C10.9467 7.57474 10.96 7.56141 10.9733 7.56141V7.55696ZM10.9911 7.62363H11.6755C11.6889 7.62363 11.7022 7.63696 11.7022 7.65474C11.7022 7.67252 11.6889 7.68585 11.6755 7.68585H10.9867C10.9689 7.68585 10.96 7.67252 10.96 7.65474C10.96 7.63696 10.9689 7.62363 10.9867 7.62363H10.9911ZM11.2133 7.15252H11.2667V7.18807H11.3067V7.15252H11.3644V7.19252H11.4044V7.14807H11.4578V7.23696C11.4578 7.25474 11.4489 7.26363 11.4355 7.26363H11.24C11.2267 7.26363 11.2133 7.25474 11.2133 7.2414V7.15252Z" stroke="black" stroke-width="0.0666669"/>
</g>
<path id="a_7" d="M11.1867 7.40588V7.557H11.0089V7.40588H11.1867Z" fill="#FFFF00" stroke="black" stroke-width="0.0666669"/>
<path id="a_8" d="M11.6578 7.40588V7.557H11.48V7.40588H11.6578Z" fill="#FFFF00" stroke="black" stroke-width="0.0666669"/>
<path id="b_7" d="M10.9778 7.29028H11.0311V7.33473H11.0711V7.29028H11.1245V7.33473H11.1645V7.29028H11.2178V7.37917C11.2178 7.39695 11.2089 7.40584 11.1956 7.40584H11.0044C10.9974 7.40584 10.9906 7.40303 10.9856 7.39803C10.9806 7.39303 10.9778 7.38624 10.9778 7.37917V7.29028Z" fill="#FFFF00" stroke="black" stroke-width="0.0666669"/>
<path id="b_8" d="M11.4489 7.29028H11.5022V7.33473H11.5422V7.29028H11.5956V7.33473H11.6356V7.29028H11.6889V7.37917C11.6889 7.39695 11.68 7.40584 11.6667 7.40584H11.4756C11.4685 7.40584 11.4617 7.40303 11.4567 7.39803C11.4517 7.39303 11.4489 7.38624 11.4489 7.37917V7.29028Z" fill="#FFFF00" stroke="black" stroke-width="0.0666669"/>
<path id="Vector_37" d="M11.3156 7.36143C11.3156 7.33476 11.3556 7.33476 11.3556 7.36143V7.43254H11.3156V7.36143Z" fill="black"/>
<path id="c_7" d="M11.08 7.45921C11.08 7.43254 11.1156 7.43254 11.1156 7.45921V7.51254H11.08V7.45921Z" fill="black"/>
<path id="c_8" d="M11.5511 7.45921C11.5511 7.43254 11.5867 7.43254 11.5867 7.45921V7.51254H11.5511V7.45921Z" fill="black"/>
</g>
<g id="e_2">
<g id="d_5">
<path id="Vector_38" d="M13.5378 7.97471C13.5334 7.73026 13.3601 7.67249 13.3601 7.67249C13.3556 7.67249 13.169 7.73471 13.169 7.97915H13.5378" fill="#FFFF00"/>
<path id="Vector_39" d="M13.689 7.67693L13.7201 7.95693H13.5334C13.5334 7.72582 13.3556 7.69026 13.3556 7.69026C13.3512 7.69026 13.1778 7.73915 13.1734 7.95693H12.9867L13.0223 7.67249H13.689V7.67693ZM13.7334 7.96138H12.9778C12.9645 7.96138 12.9512 7.97471 12.9512 7.99249C12.9512 8.01471 12.9645 8.02804 12.9778 8.02804H13.7334C13.7467 8.02804 13.7601 8.01471 13.7601 7.99249C13.7601 7.97471 13.7467 7.96138 13.729 7.96138H13.7334Z" fill="#FFFF00" stroke="black" stroke-width="0.0666669"/>
<g id="Vector_40">
<path d="M13.4579 7.95696C13.4579 7.8103 13.3556 7.7703 13.3556 7.7703C13.3556 7.7703 13.2534 7.81474 13.2534 7.95696H13.4579ZM13.7156 7.55696H12.9912C12.9779 7.55696 12.9645 7.57474 12.9645 7.59252C12.9645 7.60585 12.9779 7.61918 12.9912 7.61918H13.7156C13.729 7.61918 13.7423 7.60585 13.7423 7.58807C13.7423 7.57474 13.729 7.56141 13.7156 7.56141V7.55696ZM13.6979 7.62363H13.0134C13.0001 7.62363 12.9868 7.63696 12.9868 7.65474C12.9868 7.67252 13.0001 7.68585 13.0134 7.68585H13.7023C13.7201 7.68585 13.729 7.67252 13.729 7.65474C13.729 7.63696 13.7201 7.62363 13.7023 7.62363H13.6979ZM13.4756 7.15252H13.4223V7.18807H13.3823V7.15252H13.3245V7.19252H13.2845V7.14807H13.2312V7.23696C13.2312 7.25474 13.2401 7.26363 13.2534 7.26363H13.449C13.4623 7.26363 13.4756 7.25474 13.4756 7.2414V7.15252ZM13.2712 7.27252L13.2579 7.55696H13.449L13.4356 7.26807H13.2712" fill="#FFFF00"/>
<path d="M13.2712 7.27252L13.2579 7.55696H13.449L13.4356 7.26807H13.2712M13.4579 7.95696C13.4579 7.8103 13.3556 7.7703 13.3556 7.7703C13.3556 7.7703 13.2534 7.81474 13.2534 7.95696H13.4579ZM13.7156 7.55696H12.9912C12.9779 7.55696 12.9645 7.57474 12.9645 7.59252C12.9645 7.60585 12.9779 7.61918 12.9912 7.61918H13.7156C13.729 7.61918 13.7423 7.60585 13.7423 7.58807C13.7423 7.57474 13.729 7.56141 13.7156 7.56141V7.55696ZM13.6979 7.62363H13.0134C13.0001 7.62363 12.9868 7.63696 12.9868 7.65474C12.9868 7.67252 13.0001 7.68585 13.0134 7.68585H13.7023C13.7201 7.68585 13.729 7.67252 13.729 7.65474C13.729 7.63696 13.7201 7.62363 13.7023 7.62363H13.6979ZM13.4756 7.15252H13.4223V7.18807H13.3823V7.15252H13.3245V7.19252H13.2845V7.14807H13.2312V7.23696C13.2312 7.25474 13.2401 7.26363 13.2534 7.26363H13.449C13.4623 7.26363 13.4756 7.25474 13.4756 7.2414V7.15252Z" stroke="black" stroke-width="0.0666669"/>
</g>
<path id="a_9" d="M13.5023 7.40588V7.557H13.6801V7.40588H13.5023Z" fill="#FFFF00" stroke="black" stroke-width="0.0666669"/>
<path id="a_10" d="M13.0312 7.40588V7.557H13.209V7.40588H13.0312Z" fill="#FFFF00" stroke="black" stroke-width="0.0666669"/>
<path id="b_9" d="M13.7112 7.29028H13.6578V7.33473H13.6178V7.29028H13.5645V7.33473H13.5245V7.29028H13.4712V7.37917C13.4712 7.39695 13.4801 7.40584 13.4934 7.40584H13.6845C13.6916 7.40584 13.6984 7.40303 13.7034 7.39803C13.7084 7.39303 13.7112 7.38624 13.7112 7.37917V7.29028Z" fill="#FFFF00" stroke="black" stroke-width="0.0666669"/>
<path id="b_10" d="M13.2401 7.29028H13.1868V7.33473H13.1468V7.29028H13.0934V7.33473H13.0534V7.29028H13.0001V7.37917C13.0001 7.39695 13.009 7.40584 13.0223 7.40584H13.2134C13.2205 7.40584 13.2273 7.40303 13.2323 7.39803C13.2373 7.39303 13.2401 7.38624 13.2401 7.37917V7.29028Z" fill="#FFFF00" stroke="black" stroke-width="0.0666669"/>
<path id="Vector_41" d="M13.3734 7.36143C13.3734 7.33476 13.3334 7.33476 13.3334 7.36143V7.43254H13.3734V7.36143Z" fill="black"/>
<path id="c_9" d="M13.6089 7.45921C13.6089 7.43254 13.5734 7.43254 13.5734 7.45921V7.51254H13.6089V7.45921Z" fill="black"/>
<path id="c_10" d="M13.1379 7.45921C13.1379 7.43254 13.1023 7.43254 13.1023 7.45921V7.51254H13.1379V7.45921Z" fill="black"/>
</g>
<g id="d_6">
<path id="Vector_42" d="M13.5378 10.0324C13.5334 9.788 13.3601 9.73022 13.3601 9.73022C13.3556 9.73022 13.169 9.79245 13.169 10.0369H13.5378" fill="#FFFF00"/>
<path id="Vector_43" d="M13.689 9.73467L13.7201 10.0147H13.5334C13.5334 9.78356 13.3556 9.748 13.3556 9.748C13.3512 9.748 13.1778 9.79689 13.1734 10.0147H12.9867L13.0223 9.73022H13.689V9.73467ZM13.7334 10.0191H12.9778C12.9645 10.0191 12.9512 10.0324 12.9512 10.0502C12.9512 10.0724 12.9645 10.0858 12.9778 10.0858H13.7334C13.7467 10.0858 13.7601 10.0724 13.7601 10.0502C13.7601 10.0324 13.7467 10.0191 13.729 10.0191H13.7334Z" fill="#FFFF00" stroke="black" stroke-width="0.0666669"/>
<g id="Vector_44">
<path d="M13.4579 10.0147C13.4579 9.86803 13.3556 9.82803 13.3556 9.82803C13.3556 9.82803 13.2534 9.87248 13.2534 10.0147H13.4579ZM13.7156 9.6147H12.9912C12.9779 9.6147 12.9645 9.63248 12.9645 9.65026C12.9645 9.66359 12.9779 9.67692 12.9912 9.67692H13.7156C13.729 9.67692 13.7423 9.66359 13.7423 9.64581C13.7423 9.63248 13.729 9.61915 13.7156 9.61915V9.6147ZM13.6979 9.68137H13.0134C13.0001 9.68137 12.9868 9.6947 12.9868 9.71248C12.9868 9.73026 13.0001 9.74359 13.0134 9.74359H13.7023C13.7201 9.74359 13.729 9.73026 13.729 9.71248C13.729 9.6947 13.7201 9.68137 13.7023 9.68137H13.6979ZM13.4756 9.21025H13.4223V9.24581H13.3823V9.21025H13.3245V9.25026H13.2845V9.20581H13.2312V9.2947C13.2312 9.31248 13.2401 9.32137 13.2534 9.32137H13.449C13.4623 9.32137 13.4756 9.31248 13.4756 9.29914V9.21025ZM13.2712 9.33026L13.2579 9.6147H13.449L13.4356 9.32581H13.2712" fill="#FFFF00"/>
<path d="M13.2712 9.33026L13.2579 9.6147H13.449L13.4356 9.32581H13.2712M13.4579 10.0147C13.4579 9.86803 13.3556 9.82803 13.3556 9.82803C13.3556 9.82803 13.2534 9.87248 13.2534 10.0147H13.4579ZM13.7156 9.6147H12.9912C12.9779 9.6147 12.9645 9.63248 12.9645 9.65026C12.9645 9.66359 12.9779 9.67692 12.9912 9.67692H13.7156C13.729 9.67692 13.7423 9.66359 13.7423 9.64581C13.7423 9.63248 13.729 9.61915 13.7156 9.61915V9.6147ZM13.6979 9.68137H13.0134C13.0001 9.68137 12.9868 9.6947 12.9868 9.71248C12.9868 9.73026 13.0001 9.74359 13.0134 9.74359H13.7023C13.7201 9.74359 13.729 9.73026 13.729 9.71248C13.729 9.6947 13.7201 9.68137 13.7023 9.68137H13.6979ZM13.4756 9.21025H13.4223V9.24581H13.3823V9.21025H13.3245V9.25026H13.2845V9.20581H13.2312V9.2947C13.2312 9.31248 13.2401 9.32137 13.2534 9.32137H13.449C13.4623 9.32137 13.4756 9.31248 13.4756 9.29914V9.21025Z" stroke="black" stroke-width="0.0666669"/>
</g>
<path id="a_11" d="M13.5023 9.46362V9.61473H13.6801V9.46362H13.5023Z" fill="#FFFF00" stroke="black" stroke-width="0.0666669"/>
<path id="a_12" d="M13.0312 9.46362V9.61473H13.209V9.46362H13.0312Z" fill="#FFFF00" stroke="black" stroke-width="0.0666669"/>
<path id="b_11" d="M13.7112 9.34802H13.6578V9.39247H13.6178V9.34802H13.5645V9.39247H13.5245V9.34802H13.4712V9.43691C13.4712 9.45469 13.4801 9.46358 13.4934 9.46358H13.6845C13.6916 9.46358 13.6984 9.46077 13.7034 9.45577C13.7084 9.45077 13.7112 9.44398 13.7112 9.43691V9.34802Z" fill="#FFFF00" stroke="black" stroke-width="0.0666669"/>
<path id="b_12" d="M13.2401 9.34802H13.1867V9.39247H13.1467V9.34802H13.0934V9.39247H13.0534V9.34802H13.0001V9.43691C13.0001 9.45469 13.0089 9.46358 13.0223 9.46358H13.2134C13.2205 9.46358 13.2272 9.46077 13.2322 9.45577C13.2372 9.45077 13.2401 9.44398 13.2401 9.43691V9.34802Z" fill="#FFFF00" stroke="black" stroke-width="0.0666669"/>
<path id="Vector_45" d="M13.3734 9.41917C13.3734 9.3925 13.3334 9.3925 13.3334 9.41917V9.49028H13.3734V9.41917Z" fill="black"/>
<path id="c_11" d="M13.6089 9.51695C13.6089 9.49028 13.5734 9.49028 13.5734 9.51695V9.57028H13.6089V9.51695Z" fill="black"/>
<path id="c_12" d="M13.1378 9.51695C13.1378 9.49028 13.1023 9.49028 13.1023 9.51695V9.57028H13.1378V9.51695Z" fill="black"/>
</g>
<g id="d_7">
<path id="Vector_46" d="M12.7357 12.1772C12.9061 12.0018 12.8249 11.8381 12.8249 11.8381C12.8218 11.8349 12.6461 11.7463 12.4727 11.9186L12.7326 12.1803" fill="#FFFF00"/>
<path id="Vector_47" d="M13.0536 12.0745L12.8768 12.2939L12.7453 12.1614C12.9093 11.9986 12.8092 11.8474 12.8092 11.8474C12.8061 11.8442 12.6493 11.7557 12.4916 11.906L12.3601 11.7735L12.5869 11.5983L13.0567 12.0714L13.0536 12.0745ZM12.883 12.3065L12.3506 11.7703C12.3412 11.7609 12.3224 11.7608 12.3098 11.7733C12.294 11.789 12.2939 11.8079 12.3033 11.8173L12.8357 12.3534C12.8451 12.3629 12.864 12.363 12.8797 12.3473C12.8924 12.3348 12.8924 12.3159 12.8799 12.3033L12.883 12.3065Z" fill="#FFFF00" stroke="black" stroke-width="0.0666669"/>
<g id="Vector_48">
<path d="M12.692 12.1079C12.7961 12.0045 12.7525 11.9038 12.7525 11.9038C12.7525 11.9038 12.6489 11.8626 12.548 11.9628L12.692 12.1079ZM13.1575 12.0089L12.647 11.4949C12.6376 11.4854 12.6156 11.4885 12.603 11.501C12.5936 11.5104 12.5935 11.5293 12.6029 11.5387L13.1134 12.0528C13.1227 12.0622 13.1416 12.0623 13.1542 12.0498C13.1637 12.0404 13.1637 12.0215 13.1544 12.0121L13.1575 12.0089ZM13.0977 12.0433L12.6154 11.5576C12.606 11.5482 12.5871 11.5481 12.5745 11.5606C12.5619 11.5732 12.5618 11.592 12.5712 11.6015L13.0567 12.0903C13.0692 12.1029 13.0849 12.0998 13.0975 12.0873C13.1101 12.0748 13.1133 12.0591 13.1008 12.0465L13.0977 12.0433ZM13.2754 11.5537L13.2378 11.5158L13.2126 11.5409L13.1844 11.5125L13.2096 11.4874L13.1689 11.4464L13.1405 11.4746L13.1123 11.4462L13.1439 11.4149L13.1063 11.3771L13.0432 11.4397C13.0306 11.4522 13.0306 11.4648 13.0399 11.4743L13.1777 11.613C13.1871 11.6225 13.2028 11.6257 13.2123 11.6163L13.2754 11.5537ZM13.0462 11.4931L12.8349 11.6841L12.9696 11.8197L13.1652 11.6067L13.0493 11.49" fill="#FFFF00"/>
<path d="M13.0462 11.4931L12.8349 11.6841L12.9696 11.8197L13.1652 11.6067L13.0493 11.49M12.692 12.1079C12.7961 12.0045 12.7525 11.9038 12.7525 11.9038C12.7525 11.9038 12.6489 11.8626 12.548 11.9628L12.692 12.1079ZM13.1575 12.0089L12.647 11.4949C12.6376 11.4854 12.6156 11.4885 12.603 11.501C12.5936 11.5104 12.5935 11.5293 12.6029 11.5387L13.1134 12.0528C13.1227 12.0622 13.1416 12.0623 13.1542 12.0498C13.1637 12.0404 13.1637 12.0215 13.1544 12.0121L13.1575 12.0089ZM13.0977 12.0433L12.6154 11.5576C12.606 11.5482 12.5871 11.5481 12.5745 11.5606C12.5619 11.5732 12.5618 11.592 12.5712 11.6015L13.0567 12.0903C13.0692 12.1029 13.0849 12.0998 13.0975 12.0873C13.1101 12.0748 13.1133 12.0591 13.1008 12.0465L13.0977 12.0433ZM13.2754 11.5537L13.2378 11.5158L13.2126 11.5409L13.1844 11.5125L13.2096 11.4874L13.1689 11.4464L13.1405 11.4746L13.1123 11.4462L13.1439 11.4149L13.1063 11.3771L13.0432 11.4397C13.0306 11.4522 13.0306 11.4648 13.0399 11.4743L13.1777 11.613C13.1871 11.6225 13.2028 11.6257 13.2123 11.6163L13.2754 11.5537Z" stroke="black" stroke-width="0.0666669"/>
</g>
<path id="a_13" d="M13.1144 11.7511L13.0072 11.8575L13.1325 11.9837L13.2397 11.8772L13.1144 11.7511Z" fill="#FFFF00" stroke="black" stroke-width="0.0666669"/>
<path id="a_14" d="M12.7824 11.4167L12.6752 11.5232L12.8005 11.6493L12.9077 11.5428L12.7824 11.4167Z" fill="#FFFF00" stroke="black" stroke-width="0.0666669"/>
<path id="b_13" d="M13.3436 11.8179L13.306 11.78L13.2744 11.8113L13.2463 11.783L13.2778 11.7516L13.2402 11.7138L13.2087 11.7451L13.1805 11.7167L13.212 11.6854L13.1745 11.6476L13.1114 11.7102C13.0988 11.7227 13.0987 11.7353 13.1081 11.7448L13.2428 11.8804C13.2478 11.8854 13.2545 11.8882 13.2616 11.8883C13.2687 11.8883 13.2755 11.8855 13.2805 11.8805L13.3436 11.8179Z" fill="#FFFF00" stroke="black" stroke-width="0.0666669"/>
<path id="b_14" d="M13.0116 11.4835L12.974 11.4457L12.9425 11.477L12.9143 11.4486L12.9458 11.4173L12.9082 11.3794L12.8767 11.4108L12.8485 11.3824L12.8801 11.3511L12.8425 11.3132L12.7794 11.3759C12.7668 11.3884 12.7668 11.401 12.7761 11.4104L12.9108 11.546C12.9158 11.551 12.9226 11.5539 12.9296 11.5539C12.9367 11.5539 12.9435 11.5511 12.9485 11.5462L13.0116 11.4835Z" fill="#FFFF00" stroke="black" stroke-width="0.0666669"/>
<path id="Vector_49" d="M13.0551 11.6282C13.074 11.6094 13.0458 11.5811 13.0269 11.5998L12.9764 11.65L13.0046 11.6783L13.0551 11.6282Z" fill="black"/>
<path id="c_13" d="M13.1517 11.8643C13.1706 11.8455 13.1456 11.8203 13.1266 11.8391L13.0888 11.8767L13.1139 11.9019L13.1517 11.8643Z" fill="black"/>
<path id="c_14" d="M12.8197 11.5301C12.8387 11.5113 12.8136 11.4861 12.7947 11.5049L12.7568 11.5424L12.7819 11.5677L12.8197 11.5301Z" fill="black"/>
</g>
</g>
<g id="f">
<path id="Vector_50" d="M11.0045 10.1081C11.0037 10.2019 11.0386 10.2924 11.1022 10.3614C11.1319 10.3946 11.1682 10.4212 11.2088 10.4396C11.2493 10.4579 11.2933 10.4676 11.3378 10.4681C11.4311 10.4681 11.5156 10.4236 11.5734 10.3614C11.637 10.2924 11.6719 10.2019 11.6711 10.1081V9.62805H11.0045V10.1081Z" fill="#003399"/>
<path id="Vector_51" d="M11.1601 9.87699C11.1969 9.87699 11.2267 9.84714 11.2267 9.81032C11.2267 9.7735 11.1969 9.74365 11.1601 9.74365C11.1232 9.74365 11.0934 9.7735 11.0934 9.81032C11.0934 9.84714 11.1232 9.87699 11.1601 9.87699Z" fill="white"/>
<path id="Vector_52" d="M11.5289 9.87699C11.5657 9.87699 11.5956 9.84714 11.5956 9.81032C11.5956 9.7735 11.5657 9.74365 11.5289 9.74365C11.4921 9.74365 11.4622 9.7735 11.4622 9.81032C11.4622 9.84714 11.4921 9.87699 11.5289 9.87699Z" fill="white"/>
<path id="Vector_53" d="M11.3422 10.0547C11.3791 10.0547 11.4089 10.0249 11.4089 9.98805C11.4089 9.95123 11.3791 9.92139 11.3422 9.92139C11.3054 9.92139 11.2756 9.95123 11.2756 9.98805C11.2756 10.0249 11.3054 10.0547 11.3422 10.0547Z" fill="white"/>
<path id="Vector_54" d="M11.1601 10.2414C11.1969 10.2414 11.2267 10.2115 11.2267 10.1747C11.2267 10.1379 11.1969 10.108 11.1601 10.108C11.1232 10.108 11.0934 10.1379 11.0934 10.1747C11.0934 10.2115 11.1232 10.2414 11.1601 10.2414Z" fill="white"/>
<path id="Vector_55" d="M11.5289 10.2414C11.5657 10.2414 11.5956 10.2115 11.5956 10.1747C11.5956 10.1379 11.5657 10.108 11.5289 10.108C11.4921 10.108 11.4622 10.1379 11.4622 10.1747C11.4622 10.2115 11.4921 10.2414 11.5289 10.2414Z" fill="white"/>
</g>
<g id="f_2">
<path id="Vector_56" d="M11.0045 8.95254C11.0037 9.04634 11.0386 9.13693 11.1022 9.20587C11.1319 9.23906 11.1682 9.26569 11.2088 9.28406C11.2493 9.30242 11.2933 9.31212 11.3378 9.31254C11.4311 9.31254 11.5156 9.26809 11.5734 9.20587C11.637 9.13693 11.6719 9.04634 11.6711 8.95254V8.47253H11.0045V8.95254Z" fill="#003399"/>
<path id="Vector_57" d="M11.1601 8.72147C11.1969 8.72147 11.2267 8.69162 11.2267 8.6548C11.2267 8.61798 11.1969 8.58813 11.1601 8.58813C11.1232 8.58813 11.0934 8.61798 11.0934 8.6548C11.0934 8.69162 11.1232 8.72147 11.1601 8.72147Z" fill="white"/>
<path id="Vector_58" d="M11.5289 8.72147C11.5657 8.72147 11.5956 8.69162 11.5956 8.6548C11.5956 8.61798 11.5657 8.58813 11.5289 8.58813C11.4921 8.58813 11.4622 8.61798 11.4622 8.6548C11.4622 8.69162 11.4921 8.72147 11.5289 8.72147Z" fill="white"/>
<path id="Vector_59" d="M11.3422 8.8992C11.3791 8.8992 11.4089 8.86936 11.4089 8.83254C11.4089 8.79572 11.3791 8.76587 11.3422 8.76587C11.3054 8.76587 11.2756 8.79572 11.2756 8.83254C11.2756 8.86936 11.3054 8.8992 11.3422 8.8992Z" fill="white"/>
<path id="Vector_60" d="M11.1601 9.08585C11.1969 9.08585 11.2267 9.056 11.2267 9.01918C11.2267 8.98236 11.1969 8.95251 11.1601 8.95251C11.1232 8.95251 11.0934 8.98236 11.0934 9.01918C11.0934 9.056 11.1232 9.08585 11.1601 9.08585Z" fill="white"/>
<path id="Vector_61" d="M11.5289 9.08585C11.5657 9.08585 11.5956 9.056 11.5956 9.01918C11.5956 8.98236 11.5657 8.95251 11.5289 8.95251C11.4921 8.95251 11.4622 8.98236 11.4622 9.01918C11.4622 9.056 11.4921 9.08585 11.5289 9.08585Z" fill="white"/>
</g>
<g id="f_3">
<path id="Vector_62" d="M10.08 10.1081C10.0792 10.2019 10.1142 10.2924 10.1778 10.3614C10.2075 10.3946 10.2438 10.4212 10.2843 10.4396C10.3249 10.4579 10.3688 10.4676 10.4134 10.4681C10.5067 10.4681 10.5911 10.4236 10.6489 10.3614C10.7125 10.2924 10.7475 10.2019 10.7467 10.1081V9.62805H10.08V10.1081Z" fill="#003399"/>
<path id="Vector_63" d="M10.2356 9.87699C10.2724 9.87699 10.3023 9.84714 10.3023 9.81032C10.3023 9.7735 10.2724 9.74365 10.2356 9.74365C10.1988 9.74365 10.1689 9.7735 10.1689 9.81032C10.1689 9.84714 10.1988 9.87699 10.2356 9.87699Z" fill="white"/>
<path id="Vector_64" d="M10.6044 9.87699C10.6413 9.87699 10.6711 9.84714 10.6711 9.81032C10.6711 9.7735 10.6413 9.74365 10.6044 9.74365C10.5676 9.74365 10.5378 9.7735 10.5378 9.81032C10.5378 9.84714 10.5676 9.87699 10.6044 9.87699Z" fill="white"/>
<path id="Vector_65" d="M10.4178 10.0547C10.4546 10.0547 10.4845 10.0249 10.4845 9.98805C10.4845 9.95123 10.4546 9.92139 10.4178 9.92139C10.381 9.92139 10.3511 9.95123 10.3511 9.98805C10.3511 10.0249 10.381 10.0547 10.4178 10.0547Z" fill="white"/>
<path id="Vector_66" d="M10.2356 10.2414C10.2724 10.2414 10.3023 10.2115 10.3023 10.1747C10.3023 10.1379 10.2724 10.108 10.2356 10.108C10.1988 10.108 10.1689 10.1379 10.1689 10.1747C10.1689 10.2115 10.1988 10.2414 10.2356 10.2414Z" fill="white"/>
<path id="Vector_67" d="M10.6044 10.2414C10.6413 10.2414 10.6711 10.2115 10.6711 10.1747C10.6711 10.1379 10.6413 10.108 10.6044 10.108C10.5676 10.108 10.5378 10.1379 10.5378 10.1747C10.5378 10.2115 10.5676 10.2414 10.6044 10.2414Z" fill="white"/>
</g>
<g id="f_4">
<path id="Vector_68" d="M11.9289 10.1081C11.9281 10.2019 11.9631 10.2924 12.0267 10.3614C12.0564 10.3946 12.0926 10.4212 12.1332 10.4396C12.1738 10.4579 12.2177 10.4676 12.2622 10.4681C12.3556 10.4681 12.44 10.4236 12.4978 10.3614C12.5614 10.2924 12.5964 10.2019 12.5956 10.1081V9.62805H11.9289V10.1081Z" fill="#003399"/>
<path id="Vector_69" d="M12.0845 9.87699C12.1213 9.87699 12.1512 9.84714 12.1512 9.81032C12.1512 9.7735 12.1213 9.74365 12.0845 9.74365C12.0477 9.74365 12.0178 9.7735 12.0178 9.81032C12.0178 9.84714 12.0477 9.87699 12.0845 9.87699Z" fill="white"/>
<path id="Vector_70" d="M12.4533 9.87699C12.4901 9.87699 12.52 9.84714 12.52 9.81032C12.52 9.7735 12.4901 9.74365 12.4533 9.74365C12.4165 9.74365 12.3867 9.7735 12.3867 9.81032C12.3867 9.84714 12.4165 9.87699 12.4533 9.87699Z" fill="white"/>
<path id="Vector_71" d="M12.2667 10.0547C12.3035 10.0547 12.3333 10.0249 12.3333 9.98805C12.3333 9.95123 12.3035 9.92139 12.2667 9.92139C12.2299 9.92139 12.2 9.95123 12.2 9.98805C12.2 10.0249 12.2299 10.0547 12.2667 10.0547Z" fill="white"/>
<path id="Vector_72" d="M12.0845 10.2414C12.1213 10.2414 12.1512 10.2115 12.1512 10.1747C12.1512 10.1379 12.1213 10.108 12.0845 10.108C12.0477 10.108 12.0178 10.1379 12.0178 10.1747C12.0178 10.2115 12.0477 10.2414 12.0845 10.2414Z" fill="white"/>
<path id="Vector_73" d="M12.4533 10.2414C12.4901 10.2414 12.52 10.2115 12.52 10.1747C12.52 10.1379 12.4901 10.108 12.4533 10.108C12.4165 10.108 12.3867 10.1379 12.3867 10.1747C12.3867 10.2115 12.4165 10.2414 12.4533 10.2414Z" fill="white"/>
</g>
<g id="f_5">
<path id="Vector_74" d="M11.0045 11.2548C11.0037 11.3486 11.0386 11.4392 11.1022 11.5081C11.1319 11.5413 11.1682 11.5679 11.2088 11.5863C11.2493 11.6047 11.2933 11.6144 11.3378 11.6148C11.4311 11.6148 11.5156 11.5703 11.5734 11.5081C11.637 11.4392 11.6719 11.3486 11.6711 11.2548V10.7748H11.0045V11.2548Z" fill="#003399"/>
<path id="Vector_75" d="M11.1601 11.0237C11.1969 11.0237 11.2267 10.9939 11.2267 10.957C11.2267 10.9202 11.1969 10.8904 11.1601 10.8904C11.1232 10.8904 11.0934 10.9202 11.0934 10.957C11.0934 10.9939 11.1232 11.0237 11.1601 11.0237Z" fill="white"/>
<path id="Vector_76" d="M11.5289 11.0237C11.5657 11.0237 11.5956 10.9939 11.5956 10.957C11.5956 10.9202 11.5657 10.8904 11.5289 10.8904C11.4921 10.8904 11.4622 10.9202 11.4622 10.957C11.4622 10.9939 11.4921 11.0237 11.5289 11.0237Z" fill="white"/>
<path id="Vector_77" d="M11.3422 11.2014C11.3791 11.2014 11.4089 11.1716 11.4089 11.1348C11.4089 11.098 11.3791 11.0681 11.3422 11.0681C11.3054 11.0681 11.2756 11.098 11.2756 11.1348C11.2756 11.1716 11.3054 11.2014 11.3422 11.2014Z" fill="white"/>
<path id="Vector_78" d="M11.1601 11.3881C11.1969 11.3881 11.2267 11.3582 11.2267 11.3214C11.2267 11.2846 11.1969 11.2548 11.1601 11.2548C11.1232 11.2548 11.0934 11.2846 11.0934 11.3214C11.0934 11.3582 11.1232 11.3881 11.1601 11.3881Z" fill="white"/>
<path id="Vector_79" d="M11.5289 11.3881C11.5657 11.3881 11.5956 11.3582 11.5956 11.3214C11.5956 11.2846 11.5657 11.2548 11.5289 11.2548C11.4921 11.2548 11.4622 11.2846 11.4622 11.3214C11.4622 11.3582 11.4921 11.3881 11.5289 11.3881Z" fill="white"/>
</g>
</g>
</g>
<defs>
<clipPath id="clip0_1_385">
<rect width="26.6667" height="20" fill="white" transform="translate(0.666687)"/>
</clipPath>
</defs>
</svg>
