<svg width="28" height="20" viewBox="0 0 28 20" fill="none" xmlns="http://www.w3.org/2000/svg">
<g id="Slovakia (SK)" clip-path="url(#clip0_1_539)">
<path id="Vector" d="M0.666687 0H27.3334V20H0.666687V0Z" fill="#EE1C25"/>
<path id="Vector_2" d="M0.666687 0H27.3334V13.3333H0.666687V0Z" fill="#0B4EA2"/>
<path id="Vector_3" d="M0.666687 0H27.3334V6.66667H0.666687V0Z" fill="white"/>
<path id="Vector_4" d="M10.375 15.45C8.58333 14.5875 6.01666 12.8709 6.01666 9.48338C6.01666 6.09172 6.18333 4.55005 6.18333 4.55005H14.5708C14.5708 4.55005 14.7333 6.09172 14.7333 9.48338C14.7333 12.875 12.1667 14.5834 10.375 15.45Z" fill="white"/>
<path id="Vector_5" d="M10.375 15C8.72917 14.2083 6.375 12.6333 6.375 9.525C6.375 6.41667 6.525 5 6.525 5H14.225C14.225 5 14.3708 6.41667 14.3708 9.525C14.375 12.6375 12.0208 14.2083 10.375 15Z" fill="#EE1C25"/>
<path id="Vector_6" d="M10.725 8.70838C11.1708 8.71672 12.0417 8.73338 12.8125 8.47505C12.8125 8.47505 12.7958 8.75422 12.7958 9.07505C12.7958 9.39588 12.8167 9.67505 12.8167 9.67505C12.1083 9.43755 11.2292 9.43338 10.725 9.43755V11.1542H10.025V9.43755C9.525 9.43338 8.64583 9.43755 7.9375 9.67505C7.9375 9.67505 7.95833 9.39588 7.95833 9.07505C7.95833 8.75005 7.9375 8.47505 7.9375 8.47505C8.70833 8.73338 9.57917 8.71672 10.0208 8.70838V7.62922C9.61667 7.62922 9.03333 7.64588 8.37083 7.86672C8.37083 7.86672 8.39167 7.59172 8.39167 7.26672C8.39167 6.94588 8.37083 6.66672 8.37083 6.66672C9.03333 6.88755 9.61667 6.90838 10.0208 6.90422C10 6.22088 9.8 5.36255 9.8 5.36255C9.8 5.36255 10.2125 5.39172 10.375 5.39172C10.5417 5.39172 10.95 5.36255 10.95 5.36255C10.95 5.36255 10.75 6.22088 10.7292 6.90422C11.1333 6.90838 11.7167 6.88755 12.3792 6.66672C12.3792 6.66672 12.3583 6.94588 12.3583 7.26672C12.3583 7.59172 12.3792 7.86672 12.3792 7.86672C11.8452 7.69453 11.2859 7.61422 10.725 7.62922V8.71255V8.70838Z" fill="white"/>
<path id="Vector_7" d="M10.375 10.9708C9.54584 10.9708 9.10417 12.1167 9.10417 12.1167C9.10417 12.1167 8.85417 11.575 8.17917 11.575C7.72084 11.575 7.3875 11.9792 7.17084 12.3583C8.00417 13.6792 9.33334 14.4958 10.375 15C11.4167 14.5 12.75 13.6792 13.5792 12.3583C13.3625 11.9833 13.0292 11.575 12.5708 11.575C11.8958 11.575 11.6458 12.1167 11.6458 12.1167C11.6458 12.1167 11.2083 10.9708 10.375 10.9708Z" fill="#0B4EA2"/>
</g>
<defs>
<clipPath id="clip0_1_539">
<rect width="26.6667" height="20" fill="white" transform="translate(0.666687)"/>
</clipPath>
</defs>
</svg>
