<svg width="27" height="20" viewBox="0 0 27 20" fill="none" xmlns="http://www.w3.org/2000/svg">
<g id="Slovenia (SI)" clip-path="url(#clip0_1_550)">
<g id="Clip path group">
<mask id="mask0_1_550" style="mask-type:luminance" maskUnits="userSpaceOnUse" x="-1" y="0" width="28" height="20">
<g id="a">
<path id="Vector" d="M0.00158693 0H26.6656V20H-0.00231934L0.00158693 0Z" fill="white"/>
</g>
</mask>
<g mask="url(#mask0_1_550)">
<g id="Group">
<path id="Vector_2" fill-rule="evenodd" clip-rule="evenodd" d="M-1.83435 0H38.1656V20H-1.83435V0Z" fill="white"/>
<path id="Vector_3" fill-rule="evenodd" clip-rule="evenodd" d="M-1.83435 13.332H38.1656V20H-1.83435V13.332Z" fill="#D50000"/>
<path id="Vector_4" fill-rule="evenodd" clip-rule="evenodd" d="M-1.83435 6.66797H38.1656V13.332H-1.83435V6.66797Z" fill="#0000BF"/>
<path id="Vector_5" fill-rule="evenodd" clip-rule="evenodd" d="M9.5094 3.63281C9.35315 6.03906 9.2594 7.35938 8.89612 7.96875C8.49768 8.625 8.11487 9.10547 6.56409 9.6875C5.01721 9.10547 4.6344 8.625 4.23596 7.96875C3.86877 7.35938 3.77893 6.03906 3.62268 3.63281L3.84924 3.55469C4.31018 3.41406 4.65393 3.30078 4.90784 3.25C5.27112 3.17187 5.58362 3.08594 6.56018 3.06641C7.53674 3.08203 7.84924 3.17578 8.21252 3.25391C8.46252 3.30859 8.8219 3.41016 9.27893 3.55469L9.5094 3.63281Z" fill="#D50000"/>
<path id="Vector_6" fill-rule="evenodd" clip-rule="evenodd" d="M9.28284 3.55469C9.1344 5.95703 9.0094 7.05859 8.81409 7.58594C8.43909 8.49219 7.84534 8.98828 6.56409 9.46094C5.28284 8.98828 4.68909 8.49219 4.31018 7.58594C4.11487 7.05469 3.99768 5.95703 3.84924 3.55078C4.30237 3.41016 4.65393 3.30078 4.90784 3.25C5.27112 3.17187 5.58362 3.08203 6.56018 3.06641C7.53674 3.08203 7.84924 3.17187 8.21252 3.25C8.5741 3.33231 8.93132 3.4327 9.28284 3.55078V3.55469Z" fill="#0000BF"/>
<path id="Vector_7" fill-rule="evenodd" clip-rule="evenodd" d="M6.56409 4.28906L6.62268 4.43359L6.89612 4.47266L6.72034 4.57812L6.88831 4.69141L6.64221 4.73047L6.56409 4.86328L6.48596 4.72656L6.25159 4.69531L6.40784 4.57812L6.24377 4.47266L6.50549 4.43359L6.56409 4.28906Z" fill="#FFDF00"/>
<path id="Vector_8" fill-rule="evenodd" clip-rule="evenodd" d="M8.72424 7.01563L8.5719 6.89844L8.46643 6.71875L8.25549 6.53516L8.14221 6.35156L7.93127 6.16016L7.82971 5.97656L7.71252 5.88672L7.64221 5.8125L7.4469 5.98047L7.34534 6.16406L7.21643 6.28125L7.0719 6.16797L6.96643 5.98047L6.56409 5.26562L6.16174 5.98047L6.05627 6.16797L5.91174 6.28125L5.78284 6.16406L5.67737 5.98047L5.48596 5.8125L5.41174 5.88281L5.29846 5.97656L5.1969 6.16016L4.98596 6.35156L4.87268 6.53516L4.66174 6.71875L4.55627 6.89844L4.40393 7.01563C4.48981 7.55331 4.74423 8.04983 5.13049 8.43359C5.54955 8.79224 6.03545 9.0644 6.56018 9.23437C7.08891 9.0682 7.57809 8.79569 7.99768 8.43359C8.22424 8.19922 8.64612 7.67969 8.72424 7.01563Z" fill="white"/>
<path id="Vector_9" fill-rule="evenodd" clip-rule="evenodd" d="M7.20471 3.27734L7.26721 3.42187L7.54065 3.46094L7.36096 3.56641L7.53284 3.67969L7.28674 3.71875L7.20862 3.85156L7.13049 3.71484L6.89612 3.68359L7.05237 3.56641L6.88831 3.46094L7.14612 3.42187L7.20862 3.27734H7.20471ZM5.91565 3.27734L5.97815 3.42187L6.25159 3.45703L6.07581 3.5625L6.24377 3.67578L5.99768 3.71484L5.91956 3.84766L5.84143 3.71484L5.60706 3.67969L5.76331 3.5625L5.59924 3.45703L5.86096 3.41797L5.91956 3.27344L5.91565 3.27734Z" fill="#FFDF00"/>
<path id="Vector_10" fill-rule="evenodd" clip-rule="evenodd" d="M8.38831 7.92969H8.09924L7.82581 7.91016L7.50159 7.75391H7.1344L6.81799 7.91016L6.56409 7.93359L6.31409 7.91016L5.99768 7.75391H5.62659L5.29846 7.91016L5.02893 7.93359L4.73206 7.92969L4.59143 7.6875L4.59534 7.67969L5.03284 7.75391L5.30237 7.73438L5.62659 7.57422H5.99377L6.31409 7.73047L6.56409 7.75391L6.81799 7.73047L7.1344 7.57422H7.50159L7.82971 7.73047L8.09924 7.75391L8.52112 7.67578L8.52893 7.69141L8.3844 7.92969H8.38831ZM5.01331 8.30078L5.30237 8.28125L5.62659 8.125H5.99377L6.31409 8.28125L6.56409 8.30078L6.81409 8.28125L7.1344 8.125H7.50159L7.82581 8.28125L8.11877 8.30078L8.30627 8.06641H8.30237L8.09924 8.12109L7.82971 8.10156L7.50549 7.94531H7.13831L6.81799 8.10156L6.56799 8.125L6.31409 8.10156L5.99768 7.94531H5.62659L5.29846 8.10156L5.02893 8.125L4.83362 8.07422V8.08203L5.0094 8.30078H5.01331Z" fill="#0000BF"/>
</g>
</g>
</g>
</g>
<defs>
<clipPath id="clip0_1_550">
<rect width="26.6667" height="20" fill="white"/>
</clipPath>
</defs>
</svg>
