<svg width="27" height="20" viewBox="0 0 27 20" fill="none" xmlns="http://www.w3.org/2000/svg">
<g id="South Korea (KR)" clip-path="url(#clip0_1_336)">
<g id="Clip path group">
<mask id="mask0_1_336" style="mask-type:luminance" maskUnits="userSpaceOnUse" x="0" y="0" width="28" height="21">
<g id="a">
<path id="Vector" d="M0.332825 0.00109863H27.0008V20.0011H0.332825V0.00109863Z" fill="white"/>
</g>
</mask>
<g mask="url(#mask0_1_336)">
<g id="Group">
<path id="Vector_2" fill-rule="evenodd" clip-rule="evenodd" d="M0.332825 0.00109863H27.0047V20.0011H0.332825V0.00109863Z" fill="white"/>
<g id="Group_2">
<g id="c">
<path id="b" fill-rule="evenodd" clip-rule="evenodd" d="M3.25494 6.07568L6.02917 1.91591L6.72246 2.37828L3.94824 6.53805L3.25494 6.07568ZM4.29489 6.76924L7.06911 2.60947L7.76241 3.07184L4.98818 7.23161L4.29489 6.76924ZM5.33483 7.4628L8.10905 3.30302L8.80235 3.76539L6.02812 7.92517L5.33483 7.4628Z" fill="black"/>
<path id="b_2" fill-rule="evenodd" clip-rule="evenodd" d="M18.5074 16.2478L21.2817 12.088L21.975 12.5504L19.2007 16.7102L18.5074 16.2478ZM19.5474 16.9414L22.3216 12.7816L23.0149 13.244L20.2407 17.4037L19.5474 16.9414ZM20.5873 17.6349L23.3616 13.4751L24.0549 13.9375L21.2806 18.0973L20.5873 17.6349Z" fill="black"/>
</g>
<g id="Vector_3">
<path fill-rule="evenodd" clip-rule="evenodd" d="M19.5479 13.9368L23.0144 16.2486L19.5479 13.9368Z" fill="black"/>
<path d="M19.5479 13.9368L23.0144 16.2486" stroke="white" stroke-width="1.25"/>
</g>
<path id="Vector_4" fill-rule="evenodd" clip-rule="evenodd" d="M9.49518 7.2323C10.2309 6.12906 11.3748 5.36329 12.6752 5.10345C13.9756 4.84361 15.3259 5.11098 16.4292 5.84675C17.5324 6.58252 18.2982 7.72642 18.558 9.02679C18.8179 10.3272 18.5505 11.6775 17.8147 12.7807L9.49518 7.2323Z" fill="#CD2E3A"/>
<path id="Vector_5" fill-rule="evenodd" clip-rule="evenodd" d="M9.49517 7.23232C8.7594 8.33556 8.49203 9.6859 8.75187 10.9863C9.01171 12.2866 9.77748 13.4305 10.8807 14.1663C11.984 14.9021 13.3343 15.1695 14.6347 14.9096C15.9351 14.6498 17.0789 13.884 17.8147 12.7808C18.1826 12.2291 18.3163 11.554 18.1864 10.9038C18.0564 10.2536 17.6736 9.68165 17.1219 9.31377C16.5703 8.94588 15.8952 8.81219 15.245 8.94212C14.5948 9.07204 14.0228 9.45492 13.6549 10.0065L9.49517 7.23232Z" fill="#0047A0"/>
<path id="Vector_6" d="M13.6549 10.0066C14.421 8.8579 14.1108 7.30568 12.9621 6.5396C11.8135 5.77351 10.2612 6.08368 9.49514 7.23237C8.72906 8.38106 9.03923 9.93329 10.1879 10.6994C11.3366 11.4654 12.8888 11.1553 13.6549 10.0066Z" fill="#CD2E3A"/>
</g>
<g id="Group_3">
<g id="c_2">
<path id="b_3" fill-rule="evenodd" clip-rule="evenodd" d="M6.04065 18.0989L3.26643 13.9391L3.95972 13.4767L6.73394 17.6365L6.04065 18.0989ZM7.08059 17.4053L4.30637 13.2455L4.99966 12.7832L7.77389 16.943L7.08059 17.4053ZM8.12054 16.7118L5.34631 12.552L6.03961 12.0896L8.81383 16.2494L8.12054 16.7118Z" fill="black"/>
<path id="b_4" fill-rule="evenodd" clip-rule="evenodd" d="M21.2932 7.92676L18.5189 3.76699L19.2122 3.30462L21.9864 7.46439L21.2932 7.92676ZM22.3331 7.2332L19.5589 3.07343L20.2522 2.61106L23.0264 6.77083L22.3331 7.2332ZM23.373 6.53965L20.5988 2.37987L21.2921 1.9175L24.0663 6.07728L23.373 6.53965Z" fill="black"/>
</g>
<g id="Vector_7">
<path fill-rule="evenodd" clip-rule="evenodd" d="M5.52014 15.441L6.56008 14.7475L5.52014 15.441ZM19.5594 6.07804L20.7726 5.26889L19.5594 6.07804ZM21.8126 4.57533L22.8525 3.88178L21.8126 4.57533Z" fill="black"/>
<path d="M5.52014 15.441L6.56008 14.7475M19.5594 6.07804L20.7726 5.26889M21.8126 4.57533L22.8525 3.88178" stroke="white" stroke-width="1.25"/>
</g>
</g>
</g>
</g>
</g>
</g>
<defs>
<clipPath id="clip0_1_336">
<rect width="26.6667" height="20" fill="white" transform="translate(0.333374)"/>
</clipPath>
</defs>
</svg>
