<svg width="70" height="70" viewBox="0 0 70 70" fill="none" xmlns="http://www.w3.org/2000/svg">
<path d="M34.8751 60C38.3243 60 41.1221 57.2021 41.1221 53.75H28.628C28.628 57.2021 31.4258 60 34.8751 60ZM55.9092 45.3799C54.0225 43.3525 50.4923 40.3027 50.4923 30.3125C50.4923 22.7246 45.1719 16.6504 37.9981 15.1602V13.125C37.9981 11.3994 36.5997 10 34.8751 10C33.1505 10 31.752 11.3994 31.752 13.125V15.1602C24.5782 16.6504 19.2579 22.7246 19.2579 30.3125C19.2579 40.3027 15.7276 43.3525 13.8409 45.3799C13.255 46.0098 12.9952 46.7627 13.0001 47.5C13.0108 49.1016 14.2676 50.625 16.1348 50.625H53.6153C55.4825 50.625 56.7403 49.1016 56.7501 47.5C56.755 46.7627 56.4952 46.0088 55.9092 45.3799Z" fill="#0D0C34"/>
</svg>
