<svg width="42" height="42" viewBox="0 0 42 42" fill="none" xmlns="http://www.w3.org/2000/svg">
<path d="M15.4444 3C13.3681 3 11.6458 4.42361 11.1528 6.34722C11.0972 6.34722 11.0556 6.33333 11 6.33333C8.54861 6.33333 6.55556 8.32639 6.55556 10.7778C6.55556 11.1111 6.59722 11.4375 6.67361 11.75C4.64583 12.5833 3.22222 14.5694 3.22222 16.8889C3.22222 17.7639 3.44444 18.5764 3.79861 19.3125C2.13194 20.2708 1 22.0486 1 24.1111C1 26.4236 2.41667 28.4097 4.43056 29.2431C4.36806 29.5625 4.33333 29.8889 4.33333 30.2222C4.33333 32.9861 6.56944 35.2222 9.33333 35.2222C9.61806 35.2222 9.89583 35.1875 10.1667 35.1389C10.8333 37.1181 12.6806 38.5556 14.8889 38.5556C17.6528 38.5556 19.8889 36.3194 19.8889 33.5556V7.44444C19.8889 4.99306 17.8958 3 15.4444 3ZM41 24.1111C41 22.0486 39.8681 20.2708 38.2014 19.3125C38.5625 18.5764 38.7778 17.7639 38.7778 16.8889C38.7778 14.5694 37.3542 12.5833 35.3264 11.75C35.3958 11.4375 35.4444 11.1111 35.4444 10.7778C35.4444 8.32639 33.4514 6.33333 31 6.33333C30.9444 6.33333 30.8958 6.34722 30.8472 6.34722C30.3542 4.42361 28.6319 3 26.5556 3C24.1042 3 22.1111 4.98611 22.1111 7.44444V33.5556C22.1111 36.3194 24.3472 38.5556 27.1111 38.5556C29.3194 38.5556 31.1667 37.1181 31.8333 35.1389C32.1042 35.1875 32.3819 35.2222 32.6667 35.2222C35.4306 35.2222 37.6667 32.9861 37.6667 30.2222C37.6667 29.8889 37.6319 29.5625 37.5694 29.2431C39.5833 28.4097 41 26.4236 41 24.1111Z" fill="#0D0C34"/>
</svg>
