<svg width="900" height="900" viewBox="0 0 900 900" fill="none" xmlns="http://www.w3.org/2000/svg">
<path d="M900 450C900 698.528 698.528 900 450 900C201.472 900 0 698.528 0 450C0 201.472 201.472 0 450 0C698.528 0 900 201.472 900 450Z" fill="#A5BEF4"/>
<path d="M835.714 450C835.714 663.024 663.024 835.714 450 835.714C236.976 835.714 64.2857 663.024 64.2857 450C64.2857 236.976 236.976 64.2857 450 64.2857C663.024 64.2857 835.714 236.976 835.714 450Z" fill="#6C95EC"/>
<path d="M771.429 450C771.429 627.52 627.52 771.429 450 771.429C272.48 771.429 128.571 627.52 128.571 450C128.571 272.48 272.48 128.571 450 128.571C627.52 128.571 771.429 272.48 771.429 450Z" fill="#3D61AD"/>
</svg>
