<svg width="14" height="14" viewBox="0 0 14 14" fill="none" xmlns="http://www.w3.org/2000/svg">
<g id="Vector">
<path d="M0.137318 13.3979C-0.0457726 13.2148 -0.0457726 12.918 0.137318 12.7349L12.7349 0.137318C12.918 -0.0457727 13.2148 -0.0457724 13.3979 0.137318L13.7294 0.468832C13.9125 0.651923 13.9125 0.948771 13.7294 1.13186L1.13186 13.7294C0.94877 13.9125 0.651922 13.9125 0.468832 13.7294L0.137318 13.3979Z" fill="#0D0C34"/>
<path d="M0.46884 0.270593C0.651931 0.0875028 0.948779 0.0875028 1.13187 0.270593L13.7294 12.8681C13.9125 13.0512 13.9125 13.3481 13.7294 13.5312L13.3979 13.8627C13.2148 14.0458 12.918 14.0458 12.7349 13.8627L0.137326 1.26514C-0.0457646 1.08205 -0.0457643 0.785198 0.137326 0.602108L0.46884 0.270593Z" fill="#0D0C34"/>
</g>
</svg>
