<svg width="26" height="20" viewBox="0 0 26 20" fill="none" xmlns="http://www.w3.org/2000/svg">
<g id="United Kingdom (GB)" clip-path="url(#clip0_19_417)">
<path id="Vector" d="M0.666504 0.5H25.9998V19.5H0.666504V0.5Z" fill="#012169"/>
<path id="Vector_2" d="M3.63525 0.5L13.2936 7.66458L22.9123 0.5H25.9998V2.95417L16.4998 10.0396L25.9998 17.0854V19.5H22.8332L13.3332 12.4146L3.87275 19.5H0.666504V17.125L10.1269 10.0792L0.666504 3.03333V0.5H3.63525Z" fill="white"/>
<path id="Vector_3" d="M17.4498 11.6229L25.9998 17.9167V19.5L15.2728 11.6229H17.4498ZM10.1665 12.4146L10.404 13.8L2.804 19.5H0.666504L10.1665 12.4146ZM25.9998 0.5V0.61875L16.1436 8.06042L16.2228 6.31875L24.0207 0.5H25.9998ZM0.666504 0.5L10.1269 7.46667H7.75192L0.666504 2.1625V0.5Z" fill="#C8102E"/>
<path id="Vector_4" d="M10.2061 0.5V19.5H16.5394V0.5H10.2061ZM0.666504 6.83333V13.1667H25.9998V6.83333H0.666504Z" fill="white"/>
<path id="Vector_5" d="M0.666504 8.13958V11.9396H25.9998V8.13958H0.666504ZM11.4728 0.5V19.5H15.2728V0.5H11.4728Z" fill="#C8102E"/>
</g>
<defs>
<clipPath id="clip0_19_417">
<rect width="25.3333" height="19" fill="white" transform="translate(0.666504 0.5)"/>
</clipPath>
</defs>
</svg>
