<svg width="70" height="70" viewBox="0 0 70 70" fill="none" xmlns="http://www.w3.org/2000/svg">
<path d="M17.5 32C20.2578 32 22.5 29.7578 22.5 27C22.5 24.2422 20.2578 22 17.5 22C14.7422 22 12.5 24.2422 12.5 27C12.5 29.7578 14.7422 32 17.5 32ZM52.5 32C55.2578 32 57.5 29.7578 57.5 27C57.5 24.2422 55.2578 22 52.5 22C49.7422 22 47.5 24.2422 47.5 27C47.5 29.7578 49.7422 32 52.5 32ZM55 34.5H50C48.625 34.5 47.3828 35.0547 46.4766 35.9531C49.625 37.6797 51.8594 40.7969 52.3438 44.5H57.5C58.8828 44.5 60 43.3828 60 42V39.5C60 36.7422 57.7578 34.5 55 34.5ZM35 34.5C39.8359 34.5 43.75 30.5859 43.75 25.75C43.75 20.9141 39.8359 17 35 17C30.1641 17 26.25 20.9141 26.25 25.75C26.25 30.5859 30.1641 34.5 35 34.5ZM41 37H40.3516C38.7266 37.7812 36.9219 38.25 35 38.25C33.0781 38.25 31.2812 37.7812 29.6484 37H29C24.0312 37 20 41.0313 20 46V48.25C20 50.3203 21.6797 52 23.75 52H46.25C48.3203 52 50 50.3203 50 48.25V46C50 41.0313 45.9688 37 41 37ZM23.5234 35.9531C22.6172 35.0547 21.375 34.5 20 34.5H15C12.2422 34.5 10 36.7422 10 39.5V42C10 43.3828 11.1172 44.5 12.5 44.5H17.6484C18.1406 40.7969 20.375 37.6797 23.5234 35.9531Z" fill="#EB9A7F"/>
</svg>
