<svg width="44" height="44" viewBox="0 0 44 44" fill="none" xmlns="http://www.w3.org/2000/svg">
<g clip-path="url(#clip0_80_767)">
<path d="M27.5 20.1667V9.16675L22 3.66675L16.5 9.16675V12.8334H5.5V38.5001H38.5V20.1667H27.5ZM12.8333 34.8334H9.16667V31.1667H12.8333V34.8334ZM12.8333 27.5001H9.16667V23.8334H12.8333V27.5001ZM12.8333 20.1667H9.16667V16.5001H12.8333V20.1667ZM23.8333 34.8334H20.1667V31.1667H23.8333V34.8334ZM23.8333 27.5001H20.1667V23.8334H23.8333V27.5001ZM23.8333 20.1667H20.1667V16.5001H23.8333V20.1667ZM23.8333 12.8334H20.1667V9.16675H23.8333V12.8334ZM34.8333 34.8334H31.1667V31.1667H34.8333V34.8334ZM34.8333 27.5001H31.1667V23.8334H34.8333V27.5001Z" fill="#0D0C34"/>
</g>
<defs>
<clipPath id="clip0_80_767">
<rect width="44" height="44" fill="white"/>
</clipPath>
</defs>
</svg>
