<svg width="42" height="42" viewBox="0 0 42 42" fill="none" xmlns="http://www.w3.org/2000/svg">
<path d="M37 16.5C38.1046 16.5 39 15.6046 39 14.5V14C39 12.8954 38.1046 12 37 12H32C30.8954 12 30 11.1046 30 10V5C30 3.89543 29.1046 3 28 3H27.5C26.3954 3 25.5 3.89543 25.5 5V10C25.5 11.1046 24.6046 12 23.5 12H18.5C17.3954 12 16.5 11.1046 16.5 10V5C16.5 3.89543 15.6046 3 14.5 3H14C12.8954 3 12 3.89543 12 5V10C12 11.1046 11.1046 12 10 12H5C3.89543 12 3 12.8954 3 14V14.5C3 15.6046 3.89543 16.5 5 16.5H10C11.1046 16.5 12 17.3954 12 18.5V23.5C12 24.6046 11.1046 25.5 10 25.5H5C3.89543 25.5 3 26.3954 3 27.5V28C3 29.1046 3.89543 30 5 30H10C11.1046 30 12 30.8954 12 32V37C12 38.1046 12.8954 39 14 39H14.5C15.6046 39 16.5 38.1046 16.5 37V32C16.5 30.8954 17.3954 30 18.5 30H23.5C24.6046 30 25.5 30.8954 25.5 32V37C25.5 38.1046 26.3954 39 27.5 39H28C29.1046 39 30 38.1046 30 37V32C30 30.8954 30.8954 30 32 30H37C38.1046 30 39 29.1046 39 28V27.5C39 26.3954 38.1046 25.5 37 25.5H32C30.8954 25.5 30 24.6046 30 23.5V18.5C30 17.3954 30.8954 16.5 32 16.5H37ZM25.5 23.5C25.5 24.6046 24.6046 25.5 23.5 25.5H18.5C17.3954 25.5 16.5 24.6046 16.5 23.5V18.5C16.5 17.3954 17.3954 16.5 18.5 16.5H23.5C24.6046 16.5 25.5 17.3954 25.5 18.5V23.5Z" fill="#0D0C34"/>
</svg>
