<svg width="42" height="42" viewBox="0 0 42 42" fill="none" xmlns="http://www.w3.org/2000/svg">
<path d="M10.8378 18.7144C13.5578 24.06 17.94 28.4233 23.2856 31.1622L27.4411 27.0067C27.9511 26.4967 28.7067 26.3267 29.3678 26.5533C31.4833 27.2522 33.7689 27.63 36.1111 27.63C37.15 27.63 38 28.48 38 29.5189V36.1111C38 37.15 37.15 38 36.1111 38C18.3744 38 4 23.6256 4 5.88889C4 4.85 4.85 4 5.88889 4H12.5C13.5389 4 14.3889 4.85 14.3889 5.88889C14.3889 8.25 14.7667 10.5167 15.4656 12.6322C15.6733 13.2933 15.5222 14.03 14.9933 14.5589L10.8378 18.7144Z" fill="#0D0C34"/>
</svg>
