<svg width="101" height="100" viewBox="0 0 101 100" fill="none" xmlns="http://www.w3.org/2000/svg">
<g clip-path="url(#clip0_2820_71)">
<path d="M50.5832 8.33337C27.5833 8.33337 8.95825 27 8.95825 50C8.95825 73 27.5833 91.6667 50.5832 91.6667C73.6249 91.6667 92.2916 73 92.2916 50C92.2916 27 73.6249 8.33337 50.5832 8.33337ZM79.4583 33.3334H67.1666C65.8333 28.125 63.9166 23.125 61.4166 18.5C69.0833 21.125 75.4583 26.4584 79.4583 33.3334ZM50.6249 16.8334C54.0833 21.8334 56.7916 27.375 58.5832 33.3334H42.6666C44.4583 27.375 47.1666 21.8334 50.6249 16.8334ZM18.3749 58.3334C17.7083 55.6667 17.2916 52.875 17.2916 50C17.2916 47.125 17.7083 44.3334 18.3749 41.6667H32.4583C32.1249 44.4167 31.8749 47.1667 31.8749 50C31.8749 52.8334 32.1249 55.5834 32.4583 58.3334H18.3749ZM21.7916 66.6667H34.0833C35.4166 71.875 37.3333 76.875 39.8333 81.5C32.1666 78.875 25.7916 73.5834 21.7916 66.6667ZM34.0833 33.3334H21.7916C25.7916 26.4167 32.1666 21.125 39.8333 18.5C37.3333 23.125 35.4166 28.125 34.0833 33.3334ZM50.6249 83.1667C47.1666 78.1667 44.4583 72.625 42.6666 66.6667H58.5832C56.7916 72.625 54.0833 78.1667 50.6249 83.1667ZM60.3749 58.3334H40.8749C40.4999 55.5834 40.2083 52.8334 40.2083 50C40.2083 47.1667 40.4999 44.375 40.8749 41.6667H60.3749C60.7499 44.375 61.0416 47.1667 61.0416 50C61.0416 52.8334 60.7499 55.5834 60.3749 58.3334ZM61.4166 81.5C63.9166 76.875 65.8333 71.875 67.1666 66.6667H79.4583C75.4583 73.5417 69.0833 78.875 61.4166 81.5ZM68.7916 58.3334C69.1249 55.5834 69.3749 52.8334 69.3749 50C69.3749 47.1667 69.1249 44.4167 68.7916 41.6667H82.8749C83.5416 44.3334 83.9583 47.125 83.9583 50C83.9583 52.875 83.5416 55.6667 82.8749 58.3334H68.7916Z" fill="#EB9A7F"/>
</g>
<defs>
<clipPath id="clip0_2820_71">
<rect width="100" height="100" fill="white" transform="translate(0.625)"/>
</clipPath>
</defs>
</svg>
